<svg width="500" height="500" viewBox="0 0 500 500" fill="none" xmlns="http://www.w3.org/2000/svg">
<path d="M250.01 484.83L9.76999 346.12L249.97 207.7L490.26 346.12L250.01 484.83Z" fill="#EBEBEB"/>
<path d="M250.01 460.16L30.69 333.54L249.98 207.16L469.34 333.54L250.01 460.16Z" fill="#0C79FF"/>
<path opacity="0.4" d="M250.01 460.16L30.69 333.54L249.98 207.16L469.34 333.54L250.01 460.16Z" fill="white"/>
<path d="M30.69 333.54V346.45L250.01 473.08V460.16L30.69 333.54Z" fill="#0C79FF"/>
<path opacity="0.15" d="M30.69 333.54V346.45L250.01 473.08V460.16L30.69 333.54Z" fill="black"/>
<path d="M250.01 473.08L469.34 346.45V333.54L250.01 460.16V473.08Z" fill="#0C79FF"/>
<path d="M250.01 441.11L445.69 328.12L250 215.13L54.3 328.12L250.01 441.11Z" fill="#F5F5F5"/>
<path d="M250 449.17L250.01 441.11L445.69 328.12V151.97L452.68 147.93L451.84 332.64L250 449.17Z" fill="#37474F"/>
<path d="M250.03 449.17L250.01 441.11L54.33 328.12V151.97L47.34 147.93L48.19 332.64L250.03 449.17Z" fill="#455A64"/>
<path d="M47.34 147.93L250 30.92V38.98L54.33 151.97L47.34 147.93Z" fill="#37474F"/>
<path d="M452.65 147.93L250 30.92V38.98L445.66 151.97L452.65 147.93Z" fill="#455A64"/>
<path d="M250 215.13V38.98L445.69 151.97V328.12L250 215.13Z" fill="#F5F5F5"/>
<path d="M445.69 328.12V316.92L249.99 203.93L250 215.13L445.69 328.12Z" fill="#FAFAFA"/>
<path d="M250 203.93V38.98L54.3 151.97V316.92L250 203.93Z" fill="#0C79FF"/>
<path opacity="0.8" d="M250 203.93V38.98L54.3 151.97V316.92L250 203.93Z" fill="white"/>
<path d="M54.3 328.12L54.29 316.92L249.99 203.93V215.13L54.3 328.12Z" fill="#FAFAFA"/>
<path opacity="0.2" d="M158 109.05L121.44 278.12L214.86 224.21L178.31 97.32L158 109.05Z" fill="white"/>
<path opacity="0.2" d="M158 109.05L133.62 271.09L202.68 231.25L178.31 97.32L158 109.05Z" fill="white"/>
<path opacity="0.3" d="M158 109.05L145.81 264.06L190.49 238.26L178.31 97.32L158 109.05Z" fill="white"/>
<path d="M178.31 87.94L158 99.67L164.09 103.19L184.4 91.46L178.31 87.94Z" fill="#455A64"/>
<path d="M164.09 103.19V112.57L184.4 100.84V91.46L164.09 103.19Z" fill="#263238"/>
<path d="M158 109.05L164.09 112.57V103.19L158 99.67V109.05Z" fill="#37474F"/>
<path d="M65.5 204.86L67 205.73L136.14 165.81L134.63 164.94L65.5 204.86Z" fill="#37474F"/>
<path d="M134.63 164.94L67 203.99V160.87L134.63 121.83V164.94Z" fill="#FAFAFA"/>
<path d="M70.18 195.87C70.18 197.27 71.18 197.87 72.38 197.14L92.72 185.4C93.3581 184.981 93.8888 184.418 94.2692 183.756C94.6496 183.094 94.8691 182.352 94.91 181.59V143.66L70.18 158V195.87Z" fill="#455A64"/>
<path d="M72.68 161.26L77.34 158.56C77.58 158.42 77.78 158.56 77.78 158.81V161.32C77.7693 161.472 77.7241 161.619 77.6479 161.751C77.5716 161.883 77.4663 161.995 77.34 162.08L72.68 164.78C72.44 164.92 72.24 164.78 72.24 164.53V162C72.2536 161.852 72.3002 161.708 72.3763 161.58C72.4524 161.452 72.5562 161.343 72.68 161.26Z" fill="white"/>
<path d="M102 177.5C102 178.91 103 179.5 104.2 178.77L124.54 167C125.181 166.583 125.715 166.021 126.097 165.359C126.479 164.697 126.7 163.954 126.74 163.19V125.3L102 139.58V177.5Z" fill="#455A64"/>
<path d="M104.5 142.89L109.16 140.19C109.41 140.05 109.6 140.19 109.6 140.45V143C109.589 143.152 109.544 143.299 109.468 143.431C109.392 143.563 109.286 143.675 109.16 143.76L104.5 146.47C104.26 146.61 104.06 146.47 104.06 146.21V143.71C104.061 143.548 104.102 143.389 104.179 143.246C104.255 143.103 104.366 142.981 104.5 142.89Z" fill="white"/>
<path d="M137.64 118.35L65.5 160V208.33L137.64 166.68V118.35ZM136.14 165.81L67 205.73V160.87L136.14 121V165.81Z" fill="#455A64"/>
<path d="M136.14 165.81L134.63 164.94V121.83L136.14 120.96V165.81Z" fill="#263238"/>
<path d="M137.64 118.35L136.14 117.48L63.99 159.14L65.5 160L137.64 118.35Z" fill="#F5F5F5"/>
<path d="M63.99 159.14L65.5 160V208.33L63.99 207.46V159.14Z" fill="#263238"/>
<path d="M63.99 156.76L67 158.49L139.15 116.84L136.14 115.1L63.99 156.76Z" fill="#455A64"/>
<path d="M67 158.49V163.25L139.15 121.6V116.84L67 158.49Z" fill="#37474F"/>
<path d="M63.99 156.76L67 158.49V163.25L63.99 161.52V156.76Z" fill="#263238"/>
<path d="M91.06 208.73L92.56 209.6L109.93 203.06L169.02 168.95L180.35 158.92L178.84 158.05L91.06 208.73Z" fill="#FAFAFA"/>
<path d="M91.06 208.73L92.56 209.6V218.74L91.06 217.87V208.73Z" fill="#E0E0E0"/>
<path d="M109.93 203.06V212.2L92.56 218.74V209.6L109.93 203.06Z" fill="#EBEBEB"/>
<path d="M169.02 168.95L180.35 158.92V168.06L169.02 178.09L109.93 212.2V203.06L169.02 168.95Z" fill="#F5F5F5"/>
<path d="M117.12 205.98L113.16 208.27V202.98L117.12 200.69V205.98Z" fill="#0C79FF"/>
<path opacity="0.6" d="M117.12 205.98L113.16 208.27V202.98L117.12 200.69V205.98Z" fill="white"/>
<path d="M123.98 202.02L120.02 204.31V199.02L123.98 196.73V202.02Z" fill="#0C79FF"/>
<path opacity="0.8" d="M123.98 202.02L120.02 204.31V199.02L123.98 196.73V202.02Z" fill="white"/>
<path d="M130.84 198.06L126.88 200.35V195.06L130.84 192.77V198.06Z" fill="#E6E6E6"/>
<path d="M137.71 194.1L133.74 196.4V191.1L137.71 188.81V194.1Z" fill="#E6E6E6"/>
<path d="M144.57 190.15L140.6 192.44V187.15L144.57 184.86V190.15Z" fill="#E6E6E6"/>
<path d="M151.43 186.19L147.46 188.48V183.19L151.43 180.9V186.19Z" fill="#0C79FF"/>
<path d="M158.29 182.23L154.32 184.52V179.23L158.29 176.94V182.23Z" fill="#0C79FF"/>
<path opacity="0.6" d="M158.29 182.23L154.32 184.52V179.23L158.29 176.94V182.23Z" fill="white"/>
<path d="M165.15 178.27L161.18 180.56V175.27L165.15 172.98V178.27Z" fill="#455A64"/>
<path d="M239.48 131.46L234 128.31C233.816 128.176 233.599 128.094 233.373 128.071C233.146 128.048 232.917 128.086 232.71 128.18L231.35 128.97C231.161 129.099 231.012 129.277 230.916 129.485C230.821 129.693 230.784 129.923 230.81 130.15V144.73C230.842 145.364 231.025 145.982 231.343 146.531C231.662 147.081 232.106 147.546 232.64 147.89L238.08 151.05C238.264 151.185 238.481 151.267 238.708 151.288C238.936 151.31 239.164 151.269 239.37 151.17L240.74 150.38C240.926 150.251 241.074 150.074 241.169 149.869C241.264 149.663 241.303 149.435 241.28 149.21V134.63C241.253 133.997 241.075 133.379 240.762 132.828C240.449 132.277 240.01 131.808 239.48 131.46Z" fill="#0C79FF"/>
<path opacity="0.6" d="M230.84 144.73C230.872 145.364 231.055 145.982 231.373 146.531C231.692 147.08 232.136 147.546 232.67 147.89L238.11 151.05C238.294 151.185 238.511 151.267 238.738 151.288C238.966 151.31 239.194 151.269 239.4 151.17L240.77 150.38C240.956 150.251 241.104 150.074 241.199 149.869C241.294 149.663 241.333 149.435 241.31 149.21V134.63C241.298 134.159 241.189 133.696 240.99 133.27L230.84 135.2V144.73Z" fill="white"/>
<path opacity="0.7" d="M239.48 131.46L234 128.31C233.816 128.176 233.599 128.094 233.373 128.071C233.146 128.048 232.917 128.086 232.71 128.18L231.35 128.97C231.161 129.099 231.012 129.277 230.916 129.485C230.821 129.693 230.784 129.923 230.81 130.15V135.15L241 133.27C240.691 132.525 240.16 131.893 239.48 131.46Z" fill="white"/>
<path d="M232.67 129.09L238.11 132.25C238.644 132.594 239.088 133.059 239.407 133.609C239.725 134.158 239.908 134.776 239.94 135.41V150C239.94 151.17 239.12 151.64 238.11 151.06L232.67 147.9C232.136 147.556 231.692 147.091 231.373 146.541C231.055 145.992 230.872 145.374 230.84 144.74V130.15C230.84 129 231.66 128.51 232.67 129.09Z" fill="#0C79FF"/>
<path opacity="0.4" d="M232.67 129.09L238.11 132.25C238.644 132.594 239.088 133.059 239.407 133.609C239.725 134.158 239.908 134.776 239.94 135.41V150C239.94 151.17 239.12 151.64 238.11 151.06L232.67 147.9C232.136 147.556 231.692 147.091 231.373 146.541C231.055 145.992 230.872 145.374 230.84 144.74V130.15C230.84 129 231.66 128.51 232.67 129.09Z" fill="white"/>
<path d="M217.06 162.4L209.44 158C209.232 157.905 209.054 157.757 208.922 157.571C208.79 157.385 208.71 157.167 208.69 156.94V155.37C208.705 155.141 208.783 154.921 208.915 154.734C209.048 154.547 209.229 154.4 209.44 154.31L230.05 142.41C230.615 142.12 231.24 141.969 231.875 141.969C232.51 141.969 233.135 142.12 233.7 142.41L241.33 146.82C241.537 146.913 241.715 147.059 241.847 147.244C241.979 147.428 242.059 147.644 242.08 147.87V149.45C242.059 149.676 241.979 149.892 241.847 150.076C241.715 150.261 241.537 150.407 241.33 150.5L220.72 162.4C220.154 162.691 219.527 162.843 218.89 162.843C218.253 162.843 217.626 162.691 217.06 162.4Z" fill="#0C79FF"/>
<path opacity="0.6" d="M230.05 142.41C230.615 142.12 231.24 141.969 231.875 141.969C232.51 141.969 233.135 142.12 233.7 142.41L241.33 146.82C241.537 146.913 241.715 147.059 241.847 147.244C241.979 147.428 242.059 147.644 242.08 147.87V149.45C242.059 149.676 241.979 149.892 241.847 150.076C241.715 150.261 241.537 150.407 241.33 150.5L220.72 162.4C220.307 162.628 219.85 162.768 219.38 162.81L215.09 151.05L230.05 142.41Z" fill="white"/>
<path opacity="0.4" d="M217.06 162.4L209.44 158C209.232 157.906 209.052 157.759 208.921 157.572C208.789 157.386 208.709 157.168 208.69 156.94V155.37C208.705 155.141 208.783 154.921 208.915 154.734C209.048 154.547 209.229 154.4 209.44 154.31L215.09 151.05L219.38 162.81C218.583 162.915 217.773 162.772 217.06 162.4Z" fill="white"/>
<path d="M209.44 156.42L217.06 160.83C217.628 161.116 218.254 161.265 218.89 161.265C219.526 161.265 220.152 161.116 220.72 160.83L241.33 148.93C241.552 148.857 241.746 148.716 241.884 148.527C242.021 148.337 242.095 148.109 242.095 147.875C242.095 147.641 242.021 147.413 241.884 147.223C241.746 147.034 241.552 146.893 241.33 146.82L233.7 142.41C233.135 142.12 232.51 141.969 231.875 141.969C231.24 141.969 230.615 142.12 230.05 142.41L209.44 154.31C209.218 154.383 209.024 154.524 208.886 154.713C208.749 154.903 208.675 155.131 208.675 155.365C208.675 155.599 208.749 155.827 208.886 156.017C209.024 156.206 209.218 156.347 209.44 156.42Z" fill="#0C79FF"/>
<path opacity="0.7" d="M209.44 156.42L217.06 160.83C217.628 161.116 218.254 161.265 218.89 161.265C219.526 161.265 220.152 161.116 220.72 160.83L241.33 148.93C241.552 148.857 241.746 148.716 241.884 148.527C242.021 148.337 242.095 148.109 242.095 147.875C242.095 147.641 242.021 147.413 241.884 147.223C241.746 147.034 241.552 146.893 241.33 146.82L233.7 142.41C233.135 142.12 232.51 141.969 231.875 141.969C231.24 141.969 230.615 142.12 230.05 142.41L209.44 154.31C209.218 154.383 209.024 154.524 208.886 154.713C208.749 154.903 208.675 155.131 208.675 155.365C208.675 155.599 208.749 155.827 208.886 156.017C209.024 156.206 209.218 156.347 209.44 156.42Z" fill="white"/>
<path d="M241.33 142.12L237.13 139.69V140.88L241.33 143.31C241.537 143.428 241.72 143.584 241.87 143.77C242.28 143.23 242.1 142.57 241.33 142.12Z" fill="#E0E0E0"/>
<path d="M241.33 138.37L237.13 135.95V137.13L241.33 139.56C241.535 139.682 241.717 139.837 241.87 140.02C242.28 139.48 242.1 138.82 241.33 138.37Z" fill="#E0E0E0"/>
<path d="M234.79 117.59C234.845 117.559 234.907 117.543 234.97 117.543C235.033 117.543 235.095 117.559 235.15 117.59L235.55 117.83L235.3 145.17C235.29 145.35 235.238 145.526 235.147 145.682C235.057 145.838 234.931 145.971 234.78 146.07L214.66 157.69V129.2L234.79 117.59Z" fill="#0C79FF"/>
<path opacity="0.2" d="M234.79 117.59C234.845 117.559 234.907 117.543 234.97 117.543C235.033 117.543 235.095 117.559 235.15 117.59L235.55 117.83L235.3 145.17C235.29 145.35 235.238 145.526 235.147 145.682C235.057 145.838 234.931 145.971 234.78 146.07L214.66 157.69V129.2L234.79 117.59Z" fill="black"/>
<path d="M235.18 117.82C235.46 117.65 235.7 117.82 235.7 118.12V145.35C235.69 145.533 235.636 145.71 235.544 145.869C235.452 146.027 235.324 146.161 235.17 146.26L215.05 157.87V129.43L235.18 117.82Z" fill="#0C79FF"/>
<path opacity="0.5" d="M235.18 117.82C235.46 117.65 235.7 117.82 235.7 118.12V145.35C235.69 145.533 235.636 145.71 235.544 145.869C235.452 146.027 235.324 146.161 235.17 146.26L215.05 157.87V129.43L235.18 117.82Z" fill="black"/>
<path d="M220 155.38L234.89 146.78C235.043 146.68 235.169 146.546 235.26 146.388C235.35 146.229 235.402 146.052 235.41 145.87V120.63L237.41 119.51L235.41 118.36C235.35 118.301 235.269 118.268 235.185 118.268C235.101 118.268 235.02 118.301 234.96 118.36L217.96 128.21V156.65L220.13 157.91L220 155.38Z" fill="#EBEBEB"/>
<path d="M237.06 119.59C237.35 119.42 237.58 119.59 237.58 119.89V147.13C237.57 147.31 237.518 147.486 237.427 147.642C237.337 147.798 237.211 147.931 237.06 148.03L220 157.89V129.44L237.06 119.59Z" fill="#FAFAFA"/>
<path d="M220.01 129.44L217.84 128.19L217.83 156.63L220 157.89L220.01 129.44Z" fill="#E6E6E6"/>
<path d="M220.72 130.17C220.706 130.104 220.706 130.036 220.72 129.97C220.745 129.871 220.797 129.781 220.87 129.71L220.95 129.64C221.11 129.55 221.23 129.64 221.23 129.85C221.227 129.944 221.203 130.036 221.16 130.12C221.119 130.226 221.045 130.317 220.95 130.38C220.82 130.45 220.72 130.36 220.72 130.17Z" fill="#263238"/>
<path d="M220.58 131.47C220.807 131.345 220.996 131.162 221.13 130.94C221.199 130.816 221.241 130.679 221.253 130.538C221.265 130.396 221.247 130.254 221.2 130.12C221.14 129.961 221.04 129.82 220.91 129.71C220.837 129.781 220.785 129.871 220.76 129.97C220.872 130.084 220.942 130.232 220.96 130.39C220.967 130.565 220.919 130.737 220.824 130.884C220.73 131.03 220.592 131.144 220.43 131.21C220.03 131.412 219.588 131.517 219.14 131.517C218.692 131.517 218.25 131.412 217.85 131.21C217.696 131.156 217.562 131.055 217.468 130.921C217.374 130.788 217.323 130.628 217.323 130.465C217.323 130.302 217.374 130.142 217.468 130.009C217.562 129.875 217.696 129.774 217.85 129.72V129.38L217.71 129.46C217.484 129.582 217.294 129.761 217.16 129.98C217.087 130.103 217.044 130.241 217.033 130.383C217.023 130.525 217.046 130.668 217.1 130.8C217.223 131.085 217.438 131.321 217.71 131.47C218.155 131.695 218.646 131.812 219.145 131.812C219.644 131.812 220.135 131.695 220.58 131.47Z" fill="#263238"/>
<path d="M220.13 132L238.62 119.55L238.33 119.39C238.249 119.35 238.16 119.33 238.07 119.33C237.98 119.33 237.891 119.35 237.81 119.39L219.74 131.78L220.13 132Z" fill="#0C79FF"/>
<path opacity="0.2" d="M220.13 132L238.62 119.55L238.33 119.39C238.249 119.35 238.16 119.33 238.07 119.33C237.98 119.33 237.891 119.35 237.81 119.39L219.74 131.78L220.13 132Z" fill="black"/>
<path d="M238.25 119.59C238.54 119.43 238.77 119.59 238.77 119.89V147.13C238.76 147.31 238.708 147.486 238.617 147.642C238.527 147.798 238.401 147.931 238.25 148.03L219.82 160.63V132.18L238.25 119.59Z" fill="#0C79FF"/>
<path d="M214.67 129.2L214.66 157.65L219.83 160.63V132.18L214.67 129.2Z" fill="#0C79FF"/>
<path opacity="0.1" d="M214.67 129.2L214.66 157.65L219.83 160.63V132.18L214.67 129.2Z" fill="black"/>
<path d="M215.7 135.08C215.769 134.954 215.866 134.846 215.984 134.764C216.102 134.683 216.238 134.63 216.38 134.61C216.689 134.577 217 134.651 217.26 134.82C217.682 135.089 218.033 135.456 218.284 135.889C218.535 136.323 218.677 136.81 218.7 137.31C218.706 137.567 218.648 137.822 218.53 138.05C218.448 138.175 218.341 138.282 218.216 138.363C218.091 138.445 217.951 138.501 217.804 138.526C217.656 138.551 217.506 138.546 217.36 138.511C217.215 138.475 217.079 138.41 216.96 138.32C216.538 138.048 216.187 137.679 215.937 137.245C215.686 136.81 215.544 136.321 215.52 135.82C215.513 135.562 215.575 135.306 215.7 135.08Z" fill="#455A64"/>
<path d="M217.11 135.08C216.4 134.66 215.82 135 215.82 135.82C215.845 136.267 215.975 136.702 216.199 137.089C216.423 137.477 216.735 137.806 217.11 138.05C217.82 138.47 218.4 138.13 218.4 137.31C218.375 136.863 218.245 136.428 218.021 136.041C217.797 135.654 217.485 135.324 217.11 135.08Z" fill="#F5F5F5"/>
<path d="M217.36 140.63L216.97 140.4C216.19 139.95 215.56 140.32 215.56 141.22V154.47C215.585 154.962 215.725 155.441 215.97 155.869C216.215 156.296 216.558 156.66 216.97 156.93L217.36 157.15C218.15 157.61 218.78 157.24 218.78 156.34V143.08C218.754 142.588 218.612 142.11 218.365 141.684C218.118 141.258 217.774 140.897 217.36 140.63Z" fill="#EBEBEB"/>
<path d="M214.98 129.02L220.12 131.99L219.83 132.18L214.67 129.2L214.98 129.02Z" fill="#0C79FF"/>
<path opacity="0.2" d="M214.98 129.02L220.12 131.99L219.83 132.18L214.67 129.2L214.98 129.02Z" fill="black"/>
<path d="M241.33 144.23L220.72 156.13C220.152 156.416 219.526 156.565 218.89 156.565C218.254 156.565 217.628 156.416 217.06 156.13L212.86 153.7V154.89L217.06 157.32C217.628 157.606 218.254 157.755 218.89 157.755C219.526 157.755 220.152 157.606 220.72 157.32L241.33 145.42C241.53 145.331 241.704 145.193 241.835 145.018C241.967 144.843 242.051 144.637 242.08 144.42V143.2C242.065 143.406 241.993 143.604 241.87 143.77C241.723 143.958 241.539 144.115 241.33 144.23Z" fill="#F5F5F5"/>
<path d="M241.33 140.48L220.72 152.38C220.154 152.671 219.527 152.823 218.89 152.823C218.253 152.823 217.626 152.671 217.06 152.38L212.86 149.95V151.14L217.06 153.57C217.628 153.856 218.254 154.005 218.89 154.005C219.526 154.005 220.152 153.856 220.72 153.57L241.33 141.67C241.53 141.581 241.704 141.443 241.835 141.268C241.967 141.093 242.051 140.887 242.08 140.67V139.5C242.065 139.706 241.993 139.904 241.87 140.07C241.718 140.24 241.535 140.379 241.33 140.48Z" fill="#F5F5F5"/>
<path d="M215.24 145.49L209.79 142.33C209.606 142.196 209.389 142.114 209.163 142.091C208.936 142.068 208.707 142.106 208.5 142.2L207.13 142.99C206.945 143.122 206.798 143.301 206.705 143.508C206.612 143.716 206.576 143.944 206.6 144.17V158.75C206.63 159.385 206.81 160.004 207.127 160.555C207.443 161.106 207.887 161.574 208.42 161.92L213.87 165.07C214.054 165.204 214.271 165.286 214.497 165.309C214.724 165.332 214.953 165.294 215.16 165.2L216.53 164.41C216.715 164.278 216.862 164.099 216.955 163.892C217.048 163.684 217.084 163.456 217.06 163.23V148.65C217.029 148.017 216.847 147.4 216.531 146.851C216.215 146.301 215.772 145.835 215.24 145.49Z" fill="#0C79FF"/>
<path opacity="0.6" d="M206.6 158.75C206.63 159.385 206.81 160.004 207.127 160.555C207.443 161.106 207.887 161.574 208.42 161.92L213.87 165.07C214.054 165.204 214.271 165.286 214.497 165.309C214.724 165.332 214.953 165.294 215.16 165.2L216.53 164.41C216.715 164.278 216.862 164.099 216.955 163.892C217.048 163.684 217.084 163.456 217.06 163.23V148.65C217.052 148.18 216.946 147.717 216.75 147.29L206.6 149.23V158.75Z" fill="white"/>
<path opacity="0.7" d="M215.24 145.49L209.79 142.33C209.606 142.196 209.389 142.114 209.163 142.091C208.936 142.068 208.707 142.106 208.5 142.2L207.13 142.99C206.945 143.122 206.798 143.301 206.705 143.508C206.612 143.716 206.576 143.944 206.6 144.17V149.23L216.75 147.29C216.443 146.55 215.916 145.922 215.24 145.49Z" fill="white"/>
<path d="M208.42 143.12L213.87 146.27C214.402 146.618 214.846 147.086 215.164 147.636C215.481 148.187 215.665 148.805 215.7 149.44V164C215.7 165.16 214.88 165.64 213.87 165L208.42 161.85C207.887 161.504 207.443 161.036 207.127 160.485C206.81 159.934 206.63 159.315 206.6 158.68V144.17C206.6 143 207.41 142.54 208.42 143.12Z" fill="#0C79FF"/>
<path opacity="0.4" d="M208.42 143.12L213.87 146.27C214.402 146.618 214.846 147.086 215.164 147.636C215.481 148.187 215.665 148.805 215.7 149.44V164C215.7 165.16 214.88 165.64 213.87 165L208.42 161.85C207.887 161.504 207.443 161.036 207.127 160.485C206.81 159.934 206.63 159.315 206.6 158.68V144.17C206.6 143 207.41 142.54 208.42 143.12Z" fill="white"/>
<path opacity="0.15" d="M255.95 163.48V67.27L439.68 173.33V269.58L255.95 163.48Z" fill="#0C79FF"/>
<path opacity="0.2" d="M314.77 163.06C313.49 160.3 312.21 157.54 310.77 154.83C311.77 157.71 312.88 160.54 314 163.37C315.12 166.2 316.3 169.01 317.48 171.81C318.66 174.61 319.9 177.4 321.18 180.16L323.11 184.3C323.79 185.66 324.44 187.04 325.11 188.4C324.62 186.95 324.11 185.53 323.55 184.1L322 179.85C320.89 177.01 319.71 174.21 318.52 171.41C317.33 168.61 316.05 165.82 314.77 163.06ZM335.63 169.06C336.3 170.43 336.95 171.81 337.63 173.16C337.13 171.71 336.58 170.3 336.06 168.86L334.4 164.61C333.29 161.78 332.1 158.97 330.92 156.17C329.74 153.37 328.5 150.59 327.21 147.83C325.92 145.07 324.65 142.3 323.26 139.59C324.26 142.47 325.36 145.31 326.48 148.14C327.6 150.97 328.78 153.77 329.97 156.58C331.16 159.39 332.38 162.16 333.67 164.92L335.63 169.06ZM324 164.5C325.92 168.89 327.8 173.29 329.76 177.65L332.76 184.2C333.76 186.36 334.76 188.54 335.82 190.7C334.98 188.45 334.09 186.23 333.22 184L330.53 177.34C328.72 172.91 326.84 168.51 324.99 164.1C323.14 159.69 321.19 155.31 319.23 150.94C317.27 146.57 315.3 142.22 313.23 137.94C314.91 142.42 316.7 146.86 318.51 151.3C320.32 155.74 322.17 160.09 324 164.5ZM289.77 141.9C290.45 143.26 291.09 144.64 291.77 145.99C291.28 144.55 290.77 143.13 290.21 141.7L288.54 137.45C287.43 134.61 286.25 131.81 285.06 129.01C283.87 126.21 282.64 123.42 281.36 120.66C280.08 117.9 278.79 115.14 277.36 112.42C278.36 115.31 279.47 118.14 280.59 120.97C281.71 123.8 282.89 126.61 284.07 129.41C285.25 132.21 286.49 135 287.77 137.76L289.77 141.9ZM265 127.64C266 130.52 267.1 133.36 268.23 136.19C269.36 139.02 270.52 141.83 271.71 144.63C272.9 147.43 274.13 150.21 275.41 152.97L277.34 157.11C278.02 158.48 278.66 159.86 279.34 161.21C278.85 159.77 278.34 158.35 277.77 156.91L276.11 152.66C275 149.83 273.81 147.02 272.63 144.22C271.45 141.42 270.21 138.64 268.92 135.88C267.63 133.12 266.36 130.35 265 127.64ZM278.2 137.32C280.12 141.7 282 146.1 283.96 150.47L286.91 157.01C287.91 159.18 288.91 161.36 289.97 163.51C289.14 161.27 288.24 159.05 287.38 156.81L284.69 150.16C282.88 145.72 280.99 141.33 279.15 136.91C277.31 132.49 275.35 128.12 273.39 123.76C271.43 119.4 269.45 115.03 267.39 110.76C269.08 115.24 270.87 119.68 272.68 124.11C274.49 128.54 276.32 132.9 278.17 137.32H278.2ZM418.3 219.16C420.22 223.55 422.1 227.95 424.06 232.32L427.06 238.86C428.06 241.03 429.06 243.21 430.12 245.36C429.28 243.11 428.39 240.89 427.52 238.66L424.79 232C422.98 227.57 421.1 223.17 419.25 218.76C417.4 214.35 415.45 209.97 413.49 205.61C411.53 201.25 409.55 196.88 407.49 192.56C409.17 197.05 410.96 201.49 412.77 205.92C414.58 210.35 416.46 214.75 418.3 219.16ZM409.06 217.73C407.78 214.96 406.5 212.2 405.06 209.49C406.06 212.37 407.17 215.21 408.29 218.04C409.41 220.87 410.59 223.67 411.77 226.48C412.95 229.29 414.19 232.06 415.47 234.82L417.4 238.96C418.08 240.33 418.72 241.71 419.4 243.06C418.91 241.61 418.4 240.19 417.84 238.76L416.17 234.51C415.06 231.67 413.88 228.87 412.69 226.07C411.5 223.27 410.34 220.49 409.06 217.73ZM429.92 223.73C430.59 225.09 431.24 226.47 431.92 227.82C431.42 226.38 430.87 224.96 430.35 223.53L428.69 219.27C427.58 216.44 426.39 213.64 425.21 210.83C424.03 208.02 422.79 205.25 421.5 202.49C420.21 199.73 418.94 196.97 417.55 194.25C418.55 197.13 419.65 199.97 420.77 202.8C421.89 205.63 423.07 208.44 424.26 211.24C425.45 214.04 426.67 216.83 427.96 219.59L429.92 223.73ZM372.46 192C374.38 196.38 376.26 200.78 378.22 205.15L381.17 211.69C382.17 213.86 383.17 216.04 384.23 218.19C383.4 215.95 382.5 213.73 381.64 211.5L379 204.82C377.19 200.39 375.3 195.99 373.46 191.57C371.62 187.15 369.66 182.79 367.69 178.42C365.72 174.05 363.76 169.69 361.69 165.42C363.38 169.9 365.17 174.34 366.98 178.77C368.79 183.2 370.61 187.56 372.46 192ZM363.21 190.56C361.94 187.8 360.65 185.04 359.26 182.32C360.26 185.2 361.36 188.04 362.49 190.87C363.62 193.7 364.78 196.51 365.97 199.31C367.16 202.11 368.39 204.9 369.67 207.66L371.6 211.8C372.28 213.16 372.92 214.54 373.6 215.89C373.11 214.45 372.55 213.03 372.03 211.6L370.37 207.34C369.26 204.51 368.07 201.71 366.89 198.9C365.71 196.09 364.5 193.3 363.21 190.54V190.56ZM384.07 196.56C384.75 197.93 385.39 199.3 386.07 200.66C385.58 199.21 385.07 197.79 384.51 196.36L382.84 192.11C381.73 189.27 380.55 186.47 379.36 183.67C378.17 180.87 376.94 178.08 375.66 175.32C374.38 172.56 373.09 169.8 371.66 167.09C372.66 169.97 373.77 172.81 374.89 175.64C376.01 178.47 377.19 181.27 378.37 184.08C379.55 186.89 380.79 189.66 382.07 192.42L384.07 196.56Z" fill="#0C79FF"/>
<path d="M439.68 269.58V262.69L255.95 156.6V163.48L439.68 269.58Z" fill="#F0F0F0"/>
<path d="M261.92 160.04L255.95 163.49V67.27L261.92 70.72V160.04Z" fill="#E0E0E0"/>
<path d="M301.29 120.16V189.65L307.29 186.21V123.6L301.29 120.16ZM356.41 152L350.41 148.56V218.05L356.41 214.61V152ZM402.33 178.52L396.33 175.08V244.57L402.33 241.13V178.52Z" fill="#E0E0E0"/>
<path d="M439.68 196.25V189.38L261.92 86.74L255.95 90.15L439.68 196.25Z" fill="#F0F0F0"/>
<path d="M301.29 93.44V116.32L307.29 112.87V96.87L301.29 93.44ZM356.41 125.29L350.41 121.85V144.72L356.41 141.28V125.29ZM402.33 151.81L396.33 148.37V171.24L402.33 167.8V151.81Z" fill="#E0E0E0"/>
<path d="M301.29 189.65L312.76 196.27L301.29 189.65Z" fill="#FAFAFA"/>
<path d="M255.95 90.15L298.66 114.81V91.93L301.29 93.44V116.33L347.81 143.21V120.3L350.44 121.82V144.72L393.74 169.72V146.82L396.37 148.33V171.24L439.68 196.24V200.06L396.37 175.06V244.57L393.74 243.06V173.54L350.44 148.54V218.05L347.81 216.53V147.02L301.29 120.16V189.66L298.66 188.15V118.65L255.95 93.99V90.15Z" fill="#F5F5F5"/>
<path d="M263.68 59.09V217L254.88 211.93V65.34C254.88 64.66 256.2 63.4 258.26 62.21L263.68 59.09Z" fill="#E0E0E0"/>
<path d="M272.63 222.18L254.88 211.93V65.34C254.88 65.4158 254.9 65.4902 254.939 65.5553C254.978 65.6205 255.033 65.6739 255.1 65.71C255.89 66.16 258.6 65.34 261.1 63.87L266.3 60.87C268.84 59.4 271.56 58.59 272.3 59.05C272.372 59.0862 272.431 59.1422 272.472 59.2114C272.513 59.2805 272.533 59.3598 272.53 59.44L272.63 222.18Z" fill="#0C79FF"/>
<path opacity="0.6" d="M272.63 222.18L254.88 211.93V65.34C254.88 65.4158 254.9 65.4902 254.939 65.5553C254.978 65.6205 255.033 65.6739 255.1 65.71C255.89 66.16 258.6 65.34 261.1 63.87L266.3 60.87C268.84 59.4 271.56 58.59 272.3 59.05C272.372 59.0862 272.431 59.1422 272.472 59.2114C272.513 59.2805 272.533 59.3598 272.53 59.44L272.63 222.18Z" fill="white"/>
<path opacity="0.3" d="M258.12 65.3C256.73 65.79 255.58 65.98 255.12 65.71C255.053 65.6739 254.998 65.6205 254.959 65.5553C254.92 65.4902 254.9 65.4158 254.9 65.34V211.93L258.14 213.8L258.12 65.3Z" fill="white"/>
<path opacity="0.1" d="M272.4 59.05C271.61 58.59 268.89 59.4 266.4 60.87L265.24 61.54V217.88L272.68 222.18V59.44C272.679 59.3542 272.651 59.2708 272.601 59.2011C272.551 59.1313 272.481 59.0786 272.4 59.05Z" fill="black"/>
<path d="M272.64 65.26C272.64 65.1792 272.617 65.1001 272.575 65.0313C272.532 64.9625 272.472 64.9067 272.4 64.87C271.6 64.41 268.9 65.23 266.4 66.7L261.2 69.7C258.66 71.17 255.95 71.99 255.2 71.53C255.133 71.4948 255.076 71.4415 255.038 71.3762C254.999 71.3109 254.979 71.236 254.98 71.16V65.34C254.978 65.4148 254.998 65.4885 255.037 65.5523C255.076 65.6161 255.133 65.6674 255.2 65.7C256 66.16 258.71 65.34 261.2 63.87L266.4 60.87C268.95 59.4 271.65 58.59 272.4 59.05C272.47 59.0859 272.53 59.1402 272.572 59.207C272.614 59.2739 272.638 59.3509 272.64 59.43V65.26Z" fill="#F0F0F0"/>
<path d="M269.52 62.37H269.44L264 65.53C261.94 66.72 260.62 67.98 260.62 68.66V215.26L263.86 217.13L272.61 222.18V59.44C272.67 60.1 271.46 61.25 269.52 62.37Z" fill="#E0E0E0"/>
<path d="M278.39 225.51L260.64 215.26V68.66C260.638 68.7362 260.657 68.8116 260.696 68.8771C260.735 68.9427 260.792 68.9957 260.86 69.03C261.65 69.49 264.36 68.67 266.86 67.2L272.06 64.2C274.6 62.73 277.32 61.91 278.11 62.37C278.181 62.4072 278.24 62.4634 278.28 62.5323C278.321 62.6012 278.342 62.68 278.34 62.76L278.39 225.51Z" fill="#0C79FF"/>
<path opacity="0.6" d="M278.39 225.51L260.64 215.26V68.66C260.638 68.7362 260.657 68.8116 260.696 68.8771C260.735 68.9427 260.792 68.9957 260.86 69.03C261.65 69.49 264.36 68.67 266.86 67.2L272.06 64.2C274.6 62.73 277.32 61.91 278.11 62.37C278.181 62.4072 278.24 62.4634 278.28 62.5323C278.321 62.6012 278.342 62.68 278.34 62.76L278.39 225.51Z" fill="white"/>
<path opacity="0.3" d="M263.88 68.62C262.49 69.12 261.34 69.3 260.88 69.03C260.812 68.9957 260.755 68.9427 260.716 68.8771C260.677 68.8116 260.658 68.7362 260.66 68.66V215.26L263.9 217.13L263.88 68.62Z" fill="white"/>
<path opacity="0.1" d="M278.16 62.37C277.37 61.91 274.65 62.73 272.11 64.2L270.95 64.86V221.21L278.39 225.51V62.76C278.392 62.68 278.371 62.6012 278.33 62.5323C278.29 62.4634 278.231 62.4072 278.16 62.37Z" fill="black"/>
<path d="M278.4 68.58C278.398 68.5009 278.374 68.4239 278.332 68.357C278.29 68.2902 278.23 68.2359 278.16 68.2C277.36 67.74 274.66 68.56 272.11 70.03L266.91 73.03C264.37 74.5 261.66 75.32 260.86 74.86C260.793 74.8274 260.736 74.7761 260.697 74.7123C260.658 74.6485 260.638 74.5748 260.64 74.5V68.66C260.639 68.736 260.659 68.8109 260.698 68.8762C260.736 68.9415 260.793 68.9948 260.86 69.03C261.66 69.49 264.37 68.67 266.91 67.2L272.11 64.2C274.66 62.73 277.36 61.91 278.16 62.37C278.231 62.4084 278.29 62.4646 278.332 62.533C278.374 62.6014 278.398 62.6797 278.4 62.76V68.58Z" fill="#F0F0F0"/>
<path d="M275.31 65.72H275.23L269.82 68.84C267.76 70.03 266.44 71.28 266.44 71.97V218.6L269.68 220.47L278.43 225.52V62.79C278.46 63.44 277.25 64.6 275.31 65.72Z" fill="#E0E0E0"/>
<path d="M284.19 228.85L266.43 218.6V72C266.428 72.0748 266.448 72.1485 266.487 72.2123C266.526 72.2761 266.583 72.3274 266.65 72.36C267.44 72.82 270.15 72 272.65 70.53L277.85 67.53C280.4 66.06 283.11 65.25 283.9 65.71C283.973 65.7458 284.034 65.8014 284.076 65.8704C284.119 65.9394 284.141 66.019 284.14 66.1L284.19 228.85Z" fill="#0C79FF"/>
<path opacity="0.6" d="M284.19 228.85L266.43 218.6V72C266.428 72.0748 266.448 72.1485 266.487 72.2123C266.526 72.2761 266.583 72.3274 266.65 72.36C267.44 72.82 270.15 72 272.65 70.53L277.85 67.53C280.4 66.06 283.11 65.25 283.9 65.71C283.973 65.7458 284.034 65.8014 284.076 65.8704C284.119 65.9394 284.141 66.019 284.14 66.1L284.19 228.85Z" fill="white"/>
<path opacity="0.3" d="M269.67 72C268.28 72.5 267.13 72.68 266.67 72.41C266.603 72.3774 266.546 72.3261 266.507 72.2623C266.468 72.1985 266.448 72.1248 266.45 72.05V218.6L269.69 220.47L269.67 72Z" fill="white"/>
<path opacity="0.1" d="M284 65.72C283.21 65.26 280.5 66.07 277.95 67.54L276.79 68.21V224.56L284.24 228.85V66.11C284.241 66.029 284.219 65.9494 284.176 65.8804C284.134 65.8114 284.073 65.7558 284 65.72Z" fill="black"/>
<path d="M284.19 71.93C284.191 71.849 284.169 71.7694 284.126 71.7004C284.084 71.6314 284.023 71.5758 283.95 71.54C283.15 71.08 280.45 71.9 277.9 73.37L272.7 76.37C270.16 77.84 267.45 78.66 266.65 78.2C266.583 78.1648 266.526 78.1115 266.488 78.0462C266.449 77.9809 266.429 77.906 266.43 77.83V72C266.428 72.0762 266.447 72.1516 266.486 72.2171C266.525 72.2827 266.582 72.3357 266.65 72.37C267.45 72.83 270.16 72.01 272.7 70.54L277.9 67.54C280.45 66.07 283.15 65.25 283.95 65.71C284.021 65.7476 284.081 65.8036 284.123 65.8722C284.166 65.9408 284.189 66.0195 284.19 66.1V71.93Z" fill="#F0F0F0"/>
<path d="M281.1 69.06H281.02L275.61 72.18C273.55 73.37 272.23 74.63 272.23 75.31V221.94L275.47 223.81L284.22 228.87V66.13C284.25 66.78 283 67.94 281.1 69.06Z" fill="#E0E0E0"/>
<path d="M290 232.19L272.24 221.94V75.35C272.24 75.4258 272.26 75.5002 272.299 75.5653C272.338 75.6305 272.393 75.6839 272.46 75.72C273.25 76.17 275.96 75.36 278.46 73.89L283.66 70.89C286.21 69.43 288.92 68.61 289.71 69.07C289.783 69.1058 289.844 69.1614 289.886 69.2304C289.929 69.2994 289.951 69.379 289.95 69.46L290 232.19Z" fill="#0C79FF"/>
<path opacity="0.6" d="M290 232.19L272.24 221.94V75.35C272.24 75.4258 272.26 75.5002 272.299 75.5653C272.338 75.6305 272.393 75.6839 272.46 75.72C273.25 76.17 275.96 75.36 278.46 73.89L283.66 70.89C286.21 69.43 288.92 68.61 289.71 69.07C289.783 69.1058 289.844 69.1614 289.886 69.2304C289.929 69.2994 289.951 69.379 289.95 69.46L290 232.19Z" fill="white"/>
<path opacity="0.3" d="M275.46 75.31C274.07 75.81 272.92 75.99 272.46 75.72C272.393 75.6839 272.338 75.6305 272.299 75.5653C272.26 75.5002 272.24 75.4258 272.24 75.35V221.94L275.48 223.81L275.46 75.31Z" fill="white"/>
<path opacity="0.1" d="M289.74 69.06C288.95 68.6 286.24 69.42 283.69 70.88L282.53 71.55V227.9L289.98 232.19V69.45C289.981 69.369 289.959 69.2894 289.916 69.2204C289.874 69.1514 289.813 69.0958 289.74 69.06Z" fill="black"/>
<path d="M290 75.27C290 75.1892 289.977 75.1101 289.935 75.0413C289.892 74.9725 289.832 74.9167 289.76 74.88C288.96 74.42 286.26 75.24 283.71 76.71L278.52 79.71C275.97 81.18 273.26 82 272.46 81.54C272.393 81.5039 272.338 81.4505 272.299 81.3853C272.26 81.3202 272.24 81.2458 272.24 81.17V75.35C272.242 75.4254 272.263 75.499 272.302 75.5637C272.34 75.6285 272.395 75.6823 272.46 75.72C273.26 76.17 275.97 75.36 278.52 73.89L283.71 70.89C286.26 69.42 288.96 68.6 289.76 69.06C289.833 69.0958 289.894 69.1514 289.936 69.2204C289.979 69.2894 290.001 69.369 290 69.45V75.27Z" fill="#F0F0F0"/>
<path d="M286.89 72.4H286.81L281.4 75.52C279.34 76.75 278 78 278 78.69V225.29L281.24 227.15L289.99 232.2V69.47C290 70.13 288.83 71.28 286.89 72.4Z" fill="#E0E0E0"/>
<path d="M295.76 72.8V230.57L295.07 230.94L294.8 231.08C294.57 231.2 294.34 231.3 294.12 231.4C293.68 231.6 293.24 231.78 292.83 231.93C292.47 232.065 292.103 232.179 291.73 232.27C291.371 232.363 290.997 232.385 290.63 232.333C290.263 232.282 289.909 232.158 289.59 231.97L288.33 231.24L283.8 228.63L278 225.29V78.69C277.998 78.7662 278.017 78.8416 278.056 78.9071C278.095 78.9727 278.152 79.0257 278.22 79.06C279.02 79.52 281.73 78.7 284.22 77.23L288.27 74.9L289.42 74.23C291.96 72.76 294.67 71.94 295.42 72.4C295.513 72.4198 295.597 72.4697 295.658 72.5421C295.72 72.6145 295.755 72.7051 295.76 72.8Z" fill="#0C79FF"/>
<path opacity="0.6" d="M295.76 72.8V230.57L295.07 230.94L294.8 231.08C294.57 231.2 294.34 231.3 294.12 231.4C293.68 231.6 293.24 231.78 292.83 231.93C292.47 232.065 292.103 232.179 291.73 232.27C291.371 232.363 290.997 232.385 290.63 232.333C290.263 232.282 289.909 232.158 289.59 231.97L288.33 231.24L283.8 228.63L278 225.29V78.69C277.998 78.7662 278.017 78.8416 278.056 78.9071C278.095 78.9727 278.152 79.0257 278.22 79.06C279.02 79.52 281.73 78.7 284.22 77.23L288.27 74.9L289.42 74.23C291.96 72.76 294.67 71.94 295.42 72.4C295.513 72.4198 295.597 72.4697 295.658 72.5421C295.72 72.6145 295.755 72.7051 295.76 72.8Z" fill="white"/>
<path opacity="0.3" d="M281.25 78.65C279.86 79.15 278.71 79.33 278.25 79.06C278.182 79.0257 278.125 78.9727 278.086 78.9071C278.047 78.8416 278.028 78.7662 278.03 78.69V225.29L281.27 227.16L281.25 78.65Z" fill="white"/>
<path opacity="0.1" d="M295.76 72.8V230.57L295.07 230.94L294.8 231.08C294.57 231.2 294.34 231.3 294.12 231.4C293.68 231.6 293.24 231.78 292.83 231.93C292.47 232.065 292.103 232.179 291.73 232.27C291.371 232.363 290.997 232.385 290.63 232.333C290.263 232.282 289.909 232.158 289.59 231.97L288.33 231.24V74.9L289.48 74.23C292.02 72.76 294.73 71.94 295.48 72.4C295.562 72.4304 295.632 72.485 295.682 72.5564C295.732 72.6278 295.759 72.7128 295.76 72.8Z" fill="black"/>
<path d="M295.77 78.61C295.77 78.5304 295.748 78.4525 295.705 78.3852C295.663 78.3179 295.602 78.2641 295.53 78.23C294.74 77.77 292.03 78.59 289.53 80.06L284.34 83.06C281.79 84.53 279.08 85.35 278.28 84.89C278.214 84.8556 278.159 84.8039 278.12 84.7405C278.081 84.6771 278.061 84.6043 278.06 84.53V78.69C278.06 78.7658 278.08 78.8402 278.119 78.9053C278.158 78.9705 278.213 79.0239 278.28 79.06C279.08 79.52 281.79 78.7 284.34 77.23L289.53 74.23C292.08 72.76 294.79 71.94 295.53 72.4C295.603 72.4358 295.664 72.4914 295.706 72.5604C295.749 72.6294 295.771 72.709 295.77 72.79V78.61Z" fill="#F0F0F0"/>
<path d="M295.8 72.84V230.54L295.11 230.91L294.84 231.05C294.61 231.17 294.38 231.27 294.16 231.37C293.72 231.57 293.28 231.75 292.87 231.9C292.51 232.035 292.143 232.149 291.77 232.24C291.411 232.333 291.037 232.355 290.67 232.303C290.303 232.252 289.949 232.128 289.63 231.94L288.37 231.21L283.84 228.6V82C283.84 81.31 285.16 80.06 287.23 78.87L288.37 78.21L292.64 75.74H292.72C294.45 74.74 295.6 73.74 295.8 73.03C295.808 72.967 295.808 72.903 295.8 72.84Z" fill="#E0E0E0"/>
<path d="M301.55 76.14V227.23L301.06 227.51L299.91 228.17L295.86 230.51H295.8L295.11 230.88L294.84 231.02C294.61 231.14 294.38 231.24 294.16 231.34C293.72 231.54 293.28 231.72 292.87 231.87C292.51 232.005 292.143 232.119 291.77 232.21C291.411 232.303 291.037 232.325 290.67 232.273C290.303 232.222 289.949 232.098 289.63 231.91L288.37 231.18L283.84 228.57V82C283.841 82.0743 283.861 82.1471 283.9 82.2105C283.939 82.2739 283.994 82.3256 284.06 82.36C284.68 82.71 286.43 82.31 288.37 81.43C288.965 81.1597 289.546 80.8593 290.11 80.53L294.16 78.2L295.31 77.53L295.8 77.25L296.05 77.13L296.41 76.94C296.8 76.75 297.18 76.57 297.55 76.42L297.89 76.28H297.94L298.51 76.08H298.66L298.97 75.98L299.44 75.85L299.91 75.75C300.368 75.5982 300.862 75.5982 301.32 75.75C301.392 75.7862 301.451 75.8422 301.492 75.9114C301.533 75.9805 301.553 76.0598 301.55 76.14Z" fill="#0C79FF"/>
<path opacity="0.6" d="M301.55 76.14V227.23L301.06 227.51L299.91 228.17L295.86 230.51H295.8L295.11 230.88L294.84 231.02C294.61 231.14 294.38 231.24 294.16 231.34C293.72 231.54 293.28 231.72 292.87 231.87C292.51 232.005 292.143 232.119 291.77 232.21C291.411 232.303 291.037 232.325 290.67 232.273C290.303 232.222 289.949 232.098 289.63 231.91L288.37 231.18L283.84 228.57V82C283.841 82.0743 283.861 82.1471 283.9 82.2105C283.939 82.2739 283.994 82.3256 284.06 82.36C284.68 82.71 286.43 82.31 288.37 81.43C288.965 81.1597 289.546 80.8593 290.11 80.53L294.16 78.2L295.31 77.53L295.8 77.25L296.05 77.13L296.41 76.94C296.8 76.75 297.18 76.57 297.55 76.42L297.89 76.28H297.94L298.51 76.08H298.66L298.97 75.98L299.44 75.85L299.91 75.75C300.368 75.5982 300.862 75.5982 301.32 75.75C301.392 75.7862 301.451 75.8422 301.492 75.9114C301.533 75.9805 301.553 76.0598 301.55 76.14Z" fill="white"/>
<path opacity="0.3" d="M287 82C285.61 82.5 284.46 82.68 284 82.41C283.932 82.3757 283.875 82.3227 283.836 82.2571C283.797 82.1916 283.778 82.1162 283.78 82.04V228.64L287 230.5V82Z" fill="white"/>
<path opacity="0.1" d="M301.55 76.14V227.23L301.06 227.51L299.91 228.17L295.86 230.51H295.8L295.11 230.88L294.84 231.02C294.61 231.14 294.38 231.24 294.16 231.34V78.24L295.31 77.57L295.8 77.29L296.05 77.17L296.41 76.98C296.8 76.79 297.18 76.61 297.55 76.46L297.89 76.32H297.94L298.51 76.12H298.66L298.97 76.02L299.44 75.89L299.91 75.79C300.368 75.6382 300.862 75.6382 301.32 75.79C301.386 75.8231 301.441 75.8729 301.482 75.9343C301.522 75.9957 301.546 76.0666 301.55 76.14Z" fill="black"/>
<path d="M301.56 82C301.561 81.919 301.539 81.8394 301.496 81.7704C301.454 81.7014 301.393 81.6458 301.32 81.61C300.53 81.15 297.82 81.97 295.27 83.44L290.08 86.44C287.53 87.91 284.82 88.73 284.02 88.27C283.953 88.2339 283.898 88.1805 283.859 88.1153C283.82 88.0502 283.8 87.9758 283.8 87.9V82C283.799 82.076 283.819 82.1509 283.858 82.2162C283.896 82.2815 283.953 82.3348 284.02 82.37C284.82 82.83 287.53 82.01 290.08 80.54L295.27 77.54C297.82 76.07 300.53 75.25 301.32 75.71C301.391 75.7476 301.451 75.8036 301.493 75.8722C301.536 75.9408 301.559 76.0195 301.56 76.1V82Z" fill="#F0F0F0"/>
<path d="M301.58 76.19V227.19C301.38 227.29 301.22 227.39 301.06 227.48L299.91 228.14L295.86 230.48H295.8L295.11 230.85L294.84 230.99C294.61 231.11 294.38 231.21 294.16 231.31C293.72 231.51 293.28 231.69 292.87 231.84C292.51 231.975 292.143 232.089 291.77 232.18C291.411 232.273 291.037 232.295 290.67 232.243C290.303 232.192 289.949 232.068 289.63 231.88V85.38C289.63 84.7 290.95 83.44 293.01 82.25L294.15 81.6L295.79 80.6L298.38 79.11H298.46C300.2 78.11 301.37 77.11 301.54 76.39C301.571 76.3282 301.585 76.2591 301.58 76.19Z" fill="#E0E0E0"/>
<path d="M307.35 79.48V226.07C307.35 225.989 307.327 225.91 307.285 225.841C307.242 225.773 307.182 225.717 307.11 225.68C306.37 225.25 303.97 225.93 301.58 227.22C301.38 227.32 301.22 227.42 301.06 227.51L299.91 228.17L295.86 230.51H295.8L295.11 230.88L294.84 231.02C294.61 231.14 294.38 231.24 294.16 231.34C293.72 231.54 293.28 231.72 292.87 231.87C292.51 232.005 292.143 232.119 291.77 232.21C291.411 232.303 291.037 232.325 290.67 232.273C290.303 232.222 289.949 232.098 289.63 231.91V85.38C289.63 85.4558 289.65 85.5302 289.689 85.5953C289.728 85.6605 289.783 85.7139 289.85 85.75C289.934 85.795 290.026 85.8254 290.12 85.84C290.312 85.8661 290.508 85.8661 290.7 85.84H290.96C291.244 85.8075 291.525 85.7506 291.8 85.67C292.02 85.67 292.26 85.55 292.51 85.47L292.76 85.38H292.86C293.27 85.23 293.71 85.05 294.15 84.85C294.712 84.6019 295.26 84.3215 295.79 84.01H295.85L299.9 81.67L301.05 81L301.54 80.73C303.96 79.43 306.36 78.73 307.1 79.18C307.162 79.2067 307.218 79.2478 307.261 79.3C307.304 79.3521 307.335 79.4138 307.35 79.48Z" fill="#0C79FF"/>
<path opacity="0.6" d="M307.35 79.48V226.07C307.35 225.989 307.327 225.91 307.285 225.841C307.242 225.773 307.182 225.717 307.11 225.68C306.37 225.25 303.97 225.93 301.58 227.22C301.38 227.32 301.22 227.42 301.06 227.51L299.91 228.17L295.86 230.51H295.8L295.11 230.88L294.84 231.02C294.61 231.14 294.38 231.24 294.16 231.34C293.72 231.54 293.28 231.72 292.87 231.87C292.51 232.005 292.143 232.119 291.77 232.21C291.411 232.303 291.037 232.325 290.67 232.273C290.303 232.222 289.949 232.098 289.63 231.91V85.38C289.63 85.4558 289.65 85.5302 289.689 85.5953C289.728 85.6605 289.783 85.7139 289.85 85.75C289.934 85.795 290.026 85.8254 290.12 85.84C290.312 85.8661 290.508 85.8661 290.7 85.84H290.96C291.244 85.8075 291.525 85.7506 291.8 85.67C292.02 85.67 292.26 85.55 292.51 85.47L292.76 85.38H292.86C293.27 85.23 293.71 85.05 294.15 84.85C294.712 84.6019 295.26 84.3215 295.79 84.01H295.85L299.9 81.67L301.05 81L301.54 80.73C303.96 79.43 306.36 78.73 307.1 79.18C307.162 79.2067 307.218 79.2478 307.261 79.3C307.304 79.3521 307.335 79.4138 307.35 79.48Z" fill="white"/>
<path opacity="0.3" d="M292.83 85.34V231.93C292.47 232.065 292.103 232.179 291.73 232.27C291.371 232.363 290.997 232.385 290.63 232.333C290.263 232.282 289.909 232.158 289.59 231.97V85.38C289.59 85.4558 289.61 85.5302 289.649 85.5953C289.688 85.6605 289.743 85.7139 289.81 85.75C289.894 85.795 289.986 85.8254 290.08 85.84C290.272 85.8661 290.468 85.8661 290.66 85.84C290.747 85.8455 290.833 85.8455 290.92 85.84C291.204 85.8026 291.484 85.7458 291.76 85.67C291.98 85.67 292.22 85.55 292.47 85.47L292.72 85.38L292.83 85.34Z" fill="white"/>
<path opacity="0.2" d="M307.35 79.48V226.07C307.35 225.989 307.327 225.91 307.285 225.841C307.242 225.773 307.182 225.717 307.11 225.68C306.37 225.25 303.97 225.93 301.58 227.22L301.09 227.5L299.94 228.16V81.58L301.09 80.91L301.58 80.64C303.97 79.36 306.37 78.64 307.11 79.11C307.18 79.1443 307.239 79.1967 307.281 79.2619C307.323 79.327 307.347 79.4024 307.35 79.48Z" fill="#0C79FF"/>
<path d="M307.35 85.3C307.35 85.2192 307.327 85.1401 307.285 85.0713C307.242 85.0025 307.182 84.9467 307.11 84.91C306.32 84.45 303.61 85.27 301.06 86.74L295.87 89.74C293.32 91.21 290.61 92.03 289.82 91.57C289.751 91.5353 289.694 91.4824 289.653 91.4172C289.613 91.3519 289.591 91.2768 289.59 91.2V85.38C289.59 85.4556 289.612 85.5296 289.653 85.5933C289.694 85.657 289.752 85.7079 289.82 85.74C290.61 86.2 293.32 85.39 295.87 83.92L301.06 80.92C303.61 79.45 306.32 78.63 307.11 79.09C307.183 79.1258 307.244 79.1814 307.286 79.2504C307.329 79.3194 307.351 79.399 307.35 79.48V85.3Z" fill="#F0F0F0"/>
<path d="M260.78 52.74C260.416 52.5711 260.014 52.5024 259.615 52.5411C259.216 52.5798 258.834 52.7244 258.51 52.96C257.57 53.5747 256.788 54.4019 256.227 55.3747C255.666 56.3475 255.341 57.4387 255.28 58.56C255.239 58.9564 255.303 59.3567 255.466 59.7202C255.63 60.0837 255.886 60.3976 256.21 60.63L257.29 61.25C257.653 61.4146 258.054 61.48 258.451 61.4396C258.848 61.3992 259.227 61.2544 259.55 61.02C260.49 60.4074 261.272 59.5821 261.833 58.6109C262.394 57.6397 262.719 56.55 262.78 55.43C262.822 55.022 262.75 54.6103 262.574 54.24C262.398 53.8697 262.123 53.5549 261.78 53.33L260.78 52.74Z" fill="#263238"/>
<path d="M256.32 59.15C256.383 58.0304 256.708 56.9412 257.269 55.9703C257.83 54.9993 258.611 54.1737 259.55 53.56C261.33 52.56 262.78 53.37 262.78 55.43C262.715 56.5465 262.39 57.6323 261.829 58.5998C261.267 59.5672 260.487 60.3894 259.55 61C257.77 62.05 256.32 61.21 256.32 59.15Z" fill="#37474F"/>
<path d="M438 159L260.49 56.22C260.379 56.1642 260.255 56.1403 260.131 56.1509C260.008 56.1615 259.89 56.2062 259.79 56.28C259.5 56.4686 259.259 56.7224 259.085 57.0211C258.912 57.3198 258.811 57.6551 258.79 58C258.778 58.1238 258.799 58.2487 258.852 58.3613C258.905 58.474 258.987 58.5703 259.09 58.64L436.63 161.4C436.743 161.456 436.868 161.479 436.993 161.469C437.118 161.458 437.238 161.414 437.34 161.34C437.63 161.152 437.872 160.898 438.046 160.599C438.219 160.301 438.32 159.965 438.34 159.62C438.347 159.495 438.319 159.371 438.258 159.261C438.198 159.152 438.109 159.061 438 159Z" fill="#455A64"/>
<path d="M259.09 58.64L436.63 161.4C436.743 161.456 436.868 161.479 436.993 161.469C437.118 161.458 437.238 161.414 437.34 161.34C437.534 161.22 437.704 161.064 437.84 160.88L258.94 57.33C258.85 57.5424 258.799 57.7694 258.79 58C258.778 58.1238 258.799 58.2487 258.852 58.3613C258.905 58.474 258.987 58.5703 259.09 58.64Z" fill="#37474F"/>
<path d="M439.29 156.05C438.925 155.882 438.523 155.815 438.124 155.856C437.725 155.896 437.343 156.043 437.02 156.28C436.078 156.89 435.294 157.715 434.733 158.687C434.171 159.658 433.848 160.749 433.79 161.87C433.75 162.265 433.813 162.664 433.975 163.027C434.136 163.39 434.39 163.705 434.71 163.94L435.79 164.56C436.155 164.724 436.557 164.79 436.956 164.749C437.354 164.709 437.735 164.564 438.06 164.33C439 163.717 439.782 162.892 440.343 161.921C440.904 160.95 441.229 159.86 441.29 158.74C441.332 158.332 441.26 157.92 441.084 157.55C440.908 157.18 440.633 156.865 440.29 156.64L439.29 156.05Z" fill="#263238"/>
<path d="M434.83 162.47C434.889 161.348 435.212 160.256 435.774 159.283C436.335 158.31 437.118 157.483 438.06 156.87C439.84 155.87 441.29 156.68 441.29 158.74C441.229 159.86 440.904 160.95 440.343 161.921C439.782 162.892 439 163.717 438.06 164.33C436.27 165.36 434.83 164.52 434.83 162.47Z" fill="#37474F"/>
<path d="M260.19 62.16C260.48 61.99 260.72 62.16 260.72 62.46C260.71 62.6441 260.656 62.8232 260.564 62.983C260.472 63.1427 260.344 63.2787 260.19 63.38C259.9 63.54 259.66 63.38 259.66 63.07C259.669 62.8871 259.723 62.7091 259.815 62.5508C259.907 62.3925 260.036 62.2585 260.19 62.16Z" fill="#E0E0E0"/>
<path opacity="0.1" d="M260.19 62.16C260.48 61.99 260.72 62.16 260.72 62.46C260.71 62.6441 260.656 62.8232 260.564 62.983C260.472 63.1427 260.344 63.2787 260.19 63.38C259.9 63.54 259.66 63.38 259.66 63.07C259.669 62.8871 259.723 62.7091 259.815 62.5508C259.907 62.3925 260.036 62.2585 260.19 62.16Z" fill="black"/>
<path d="M263.06 57.7L262.67 57.48C262.638 57.2759 262.562 57.0811 262.448 56.9086C262.334 56.7362 262.185 56.59 262.01 56.48C261.819 56.39 261.611 56.3434 261.4 56.3434C261.189 56.3434 260.981 56.39 260.79 56.48C260.613 56.5394 260.442 56.6164 260.28 56.71C259.58 57.1418 258.994 57.7351 258.57 58.44C258.02 59.2701 257.709 60.2352 257.67 61.23C257.599 61.5362 257.629 61.8569 257.754 62.1452C257.879 62.4335 258.093 62.6741 258.365 62.8318C258.636 62.9895 258.952 63.0559 259.264 63.0214C259.576 62.9869 259.869 62.8532 260.1 62.64C260.29 62.5284 260.471 62.4013 260.64 62.26C260.715 62.3791 260.74 62.5226 260.71 62.66C260.57 62.76 260.42 62.86 260.28 62.94C259.889 63.1846 259.441 63.3225 258.98 63.34C258.706 63.3426 258.436 63.27 258.2 63.13C257.892 62.9255 257.647 62.6398 257.492 62.3044C257.336 61.969 257.277 61.5971 257.32 61.23C257.352 60.1611 257.681 59.1222 258.27 58.23C258.72 57.4734 259.348 56.8383 260.1 56.38C260.199 56.3189 260.303 56.2654 260.41 56.22C260.676 56.0524 260.984 55.9606 261.298 55.9546C261.613 55.9486 261.924 56.0287 262.196 56.1861C262.469 56.3435 262.693 56.5723 262.846 56.8479C262.998 57.1235 263.072 57.4354 263.06 57.75V57.7Z" fill="#FAFAFA"/>
<path d="M263.08 63.82C263.37 63.65 263.6 63.82 263.6 64.12C263.592 64.3034 263.54 64.4822 263.45 64.6421C263.359 64.8019 263.233 64.9382 263.08 65.04C262.78 65.2 262.55 65.04 262.55 64.73C262.559 64.5471 262.613 64.3691 262.705 64.2108C262.797 64.0525 262.926 63.9185 263.08 63.82Z" fill="#E0E0E0"/>
<path d="M265.94 59.36L265.56 59.14C265.526 58.9363 265.45 58.742 265.337 58.5697C265.223 58.3974 265.074 58.251 264.9 58.14C264.708 58.0498 264.498 58.0031 264.285 58.0031C264.072 58.0031 263.863 58.0498 263.67 58.14C263.492 58.1975 263.321 58.2746 263.16 58.37C262.473 58.7761 261.889 59.3336 261.45 60C260.9 60.8301 260.589 61.7952 260.55 62.79C260.475 63.0997 260.501 63.4255 260.626 63.7189C260.751 64.0123 260.967 64.2576 261.242 64.4183C261.517 64.579 261.837 64.6465 262.154 64.6107C262.471 64.575 262.767 64.438 263 64.22C263.18 64.11 263.36 63.98 263.54 63.85C263.578 63.9068 263.603 63.9707 263.615 64.0378C263.627 64.1048 263.626 64.1737 263.61 64.24C263.47 64.3439 263.323 64.4375 263.17 64.52C262.784 64.7678 262.338 64.906 261.88 64.92C261.603 64.9229 261.329 64.8504 261.09 64.71C260.782 64.5055 260.537 64.2198 260.382 63.8844C260.226 63.549 260.167 63.1771 260.21 62.81C260.255 61.736 260.602 60.6964 261.21 59.81C261.652 59.0714 262.266 58.4505 263 58C263.094 57.9382 263.194 57.8878 263.3 57.85C263.566 57.6829 263.872 57.5913 264.186 57.5849C264.5 57.5785 264.809 57.6577 265.082 57.8139C265.354 57.9701 265.579 58.1974 265.732 58.4715C265.885 58.7457 265.96 59.0562 265.95 59.37L265.94 59.36Z" fill="#FAFAFA"/>
<path d="M266 65.48C266.29 65.31 266.53 65.48 266.53 65.78C266.52 65.9641 266.466 66.1432 266.374 66.303C266.282 66.4627 266.154 66.5987 266 66.7C265.71 66.87 265.47 66.7 265.47 66.39C265.482 66.2076 265.536 66.0305 265.628 65.8726C265.72 65.7147 265.847 65.5803 266 65.48Z" fill="#E0E0E0"/>
<path opacity="0.1" d="M266 65.48C266.29 65.31 266.53 65.48 266.53 65.78C266.52 65.9641 266.466 66.1432 266.374 66.303C266.282 66.4627 266.154 66.5987 266 66.7C265.71 66.87 265.47 66.7 265.47 66.39C265.482 66.2076 265.536 66.0305 265.628 65.8726C265.72 65.7147 265.847 65.5803 266 65.48Z" fill="black"/>
<path d="M268.44 60.82C268.424 60.6055 268.356 60.3983 268.241 60.2162C268.127 60.0341 267.969 59.8828 267.783 59.7753C267.597 59.6679 267.387 59.6076 267.172 59.5997C266.957 59.5918 266.744 59.6365 266.55 59.73C266.359 59.8046 266.176 59.8949 266 60C265.307 60.4378 264.726 61.0299 264.3 61.73C263.75 62.5601 263.439 63.5252 263.4 64.52C263.329 64.8262 263.359 65.1469 263.484 65.4352C263.609 65.7235 263.823 65.9641 264.095 66.1218C264.366 66.2795 264.682 66.3459 264.994 66.3114C265.306 66.2769 265.599 66.1432 265.83 65.93C266.018 65.8194 266.199 65.6957 266.37 65.56C266.408 65.6168 266.433 65.6807 266.445 65.7478C266.457 65.8148 266.456 65.8837 266.44 65.95C266.304 66.0596 266.157 66.1535 266 66.23C265.615 66.4801 265.169 66.6186 264.71 66.63C264.437 66.6314 264.169 66.5625 263.93 66.43C263.626 66.2193 263.384 65.931 263.229 65.5951C263.075 65.2592 263.013 64.8879 263.05 64.52C263.094 63.4458 263.441 62.4059 264.05 61.52C264.5 60.7605 265.128 60.122 265.88 59.66C265.976 59.6021 266.076 59.5519 266.18 59.51C266.454 59.363 266.759 59.286 267.07 59.286C267.381 59.286 267.686 59.363 267.96 59.51C268.224 59.6791 268.441 59.9111 268.593 60.1851C268.745 60.4592 268.826 60.7667 268.83 61.08L268.44 60.82Z" fill="#FAFAFA"/>
<path d="M268.84 67.14C269.13 66.97 269.37 67.14 269.37 67.45C269.358 67.6324 269.304 67.8095 269.212 67.9674C269.12 68.1253 268.993 68.2597 268.84 68.36C268.55 68.53 268.32 68.36 268.32 68.05C268.33 67.8683 268.382 67.6915 268.472 67.5335C268.563 67.3755 268.689 67.2408 268.84 67.14Z" fill="#E0E0E0"/>
<path d="M271.33 62.49C271.312 62.2752 271.243 62.068 271.127 61.8861C271.011 61.7042 270.853 61.5531 270.666 61.4459C270.479 61.3386 270.269 61.2784 270.054 61.2704C269.838 61.2624 269.624 61.3069 269.43 61.4C269.255 61.454 269.088 61.5278 268.93 61.62C268.234 62.0574 267.649 62.6495 267.22 63.35C266.672 64.1808 266.361 65.1454 266.32 66.14C266.254 66.4463 266.286 66.7657 266.413 67.0522C266.54 67.3388 266.755 67.5776 267.026 67.7344C267.297 67.8912 267.611 67.9578 267.923 67.9247C268.235 67.8916 268.528 67.7604 268.76 67.55C268.945 67.4393 269.122 67.3156 269.29 67.18C269.327 67.237 269.352 67.3009 269.364 67.3679C269.376 67.4349 269.375 67.5036 269.36 67.57C269.228 67.6794 269.083 67.7733 268.93 67.85C268.541 68.099 268.092 68.2373 267.63 68.25C267.357 68.2514 267.089 68.1825 266.85 68.05C266.545 67.84 266.303 67.5518 266.148 67.2158C265.993 66.8797 265.932 66.5081 265.97 66.14C266.005 65.0716 266.333 64.0336 266.92 63.14C267.374 62.38 268.005 61.7417 268.76 61.28C268.85 61.2213 268.948 61.1743 269.05 61.14C269.32 60.9826 269.626 60.8955 269.939 60.8868C270.251 60.8781 270.561 60.9479 270.84 61.09C271.1 61.2678 271.314 61.5045 271.465 61.7808C271.617 62.0571 271.7 62.3652 271.71 62.68L271.33 62.49Z" fill="#FAFAFA"/>
<path d="M271.73 68.8C272.02 68.63 272.25 68.8 272.25 69.11C272.24 69.2917 272.188 69.4685 272.098 69.6265C272.007 69.7844 271.881 69.9192 271.73 70.02C271.44 70.19 271.2 70.02 271.2 69.72C271.21 69.5359 271.264 69.3568 271.356 69.197C271.448 69.0373 271.576 68.9013 271.73 68.8Z" fill="#E0E0E0"/>
<path opacity="0.1" d="M271.73 68.8C272.02 68.63 272.25 68.8 272.25 69.11C272.24 69.2917 272.188 69.4685 272.098 69.6265C272.007 69.7844 271.881 69.9192 271.73 70.02C271.44 70.19 271.2 70.02 271.2 69.72C271.21 69.5359 271.264 69.3568 271.356 69.197C271.448 69.0373 271.576 68.9013 271.73 68.8Z" fill="black"/>
<path d="M274.21 64.15C274.175 63.9467 274.099 63.7529 273.985 63.5807C273.871 63.4086 273.723 63.2619 273.55 63.15C273.357 63.0569 273.145 63.0086 272.93 63.0086C272.715 63.0086 272.503 63.0569 272.31 63.15C272.135 63.204 271.968 63.2778 271.81 63.37C271.054 63.8694 270.425 64.5377 269.972 65.3222C269.519 66.1067 269.255 66.9858 269.2 67.89C269.134 68.1963 269.166 68.5157 269.293 68.8022C269.42 69.0888 269.635 69.3276 269.906 69.4844C270.177 69.6412 270.491 69.7078 270.803 69.6747C271.115 69.6416 271.408 69.5104 271.64 69.3C271.827 69.187 272.007 69.0635 272.18 68.93C272.217 68.987 272.242 69.0509 272.254 69.1179C272.266 69.1849 272.265 69.2536 272.25 69.32C272.112 69.4294 271.965 69.5264 271.81 69.61C271.422 69.8507 270.977 69.9852 270.52 70C270.243 70.0065 269.97 69.9373 269.73 69.8C269.425 69.59 269.183 69.3018 269.028 68.9658C268.873 68.6297 268.812 68.2581 268.85 67.89C268.885 66.8216 269.213 65.7836 269.8 64.89C270.253 64.1213 270.884 63.473 271.64 63C271.727 62.9415 271.821 62.8944 271.92 62.86C272.196 62.7103 272.506 62.632 272.82 62.632C273.134 62.632 273.444 62.7103 273.72 62.86C273.985 63.0329 274.203 63.2685 274.354 63.5459C274.506 63.8233 274.587 64.1338 274.59 64.45L274.21 64.15Z" fill="#FAFAFA"/>
<path d="M274.61 70.46C274.9 70.29 275.14 70.46 275.14 70.77C275.128 70.9524 275.074 71.1295 274.982 71.2874C274.89 71.4453 274.763 71.5797 274.61 71.68C274.32 71.85 274.08 71.68 274.08 71.38C274.09 71.1959 274.144 71.0168 274.236 70.857C274.328 70.6973 274.456 70.5613 274.61 70.46Z" fill="#E0E0E0"/>
<path d="M277.09 65.81C277.055 65.6067 276.979 65.4129 276.865 65.2407C276.751 65.0686 276.603 64.9219 276.43 64.81C276.237 64.7169 276.025 64.6686 275.81 64.6686C275.595 64.6686 275.383 64.7169 275.19 64.81C275.02 64.8685 274.856 64.9422 274.7 65.03C274.017 65.441 273.435 66.0017 273 66.67C272.449 67.4994 272.138 68.4649 272.1 69.46C272.032 69.7654 272.064 70.0844 272.19 70.3706C272.316 70.6568 272.53 70.8953 272.801 71.0514C273.072 71.2076 273.386 71.2732 273.697 71.2388C274.008 71.2043 274.3 71.0717 274.53 70.86C274.718 70.7494 274.899 70.6257 275.07 70.49C275.107 70.547 275.132 70.6109 275.144 70.6779C275.156 70.7449 275.155 70.8136 275.14 70.88C275.004 70.9868 274.86 71.0838 274.71 71.17C274.321 71.4164 273.871 71.5513 273.41 71.56C273.137 71.5662 272.867 71.497 272.63 71.36C272.327 71.1509 272.085 70.8643 271.931 70.5301C271.776 70.196 271.713 69.8264 271.75 69.46C271.785 68.3916 272.113 67.3536 272.7 66.46C273.147 65.6956 273.775 65.0532 274.53 64.59C274.617 64.5315 274.711 64.4844 274.81 64.45C275.086 64.3003 275.396 64.222 275.71 64.222C276.024 64.222 276.334 64.3003 276.61 64.45C276.875 64.6229 277.093 64.8585 277.244 65.1359C277.396 65.4133 277.477 65.7238 277.48 66.04L277.09 65.81Z" fill="#FAFAFA"/>
<path d="M277.49 72.12C277.79 71.96 278.02 72.12 278.02 72.43C278.011 72.6131 277.959 72.7914 277.866 72.9499C277.774 73.1083 277.645 73.2421 277.49 73.34C277.2 73.51 276.97 73.34 276.97 73.04C276.978 72.8566 277.03 72.6778 277.12 72.5179C277.211 72.3581 277.337 72.2218 277.49 72.12Z" fill="#E0E0E0"/>
<path opacity="0.1" d="M277.49 72.12C277.79 71.96 278.02 72.12 278.02 72.43C278.011 72.6131 277.959 72.7914 277.866 72.9499C277.774 73.1083 277.645 73.2421 277.49 73.34C277.2 73.51 276.97 73.34 276.97 73.04C276.978 72.8566 277.03 72.6778 277.12 72.5179C277.211 72.3581 277.337 72.2218 277.49 72.12Z" fill="black"/>
<path d="M280.36 67.7L279.98 67.48C279.953 67.2649 279.88 67.0581 279.766 66.8736C279.652 66.689 279.5 66.531 279.32 66.41C279.125 66.3154 278.912 66.2662 278.695 66.2662C278.479 66.2662 278.265 66.3154 278.07 66.41C277.897 66.4598 277.732 66.5338 277.58 66.63C276.88 67.0618 276.294 67.6551 275.87 68.36C275.32 69.1901 275.009 70.1552 274.97 71.15C274.907 71.4555 274.941 71.7732 275.069 72.0577C275.197 72.3423 275.412 72.5791 275.683 72.7343C275.953 72.8896 276.266 72.9554 276.576 72.9223C276.886 72.8892 277.178 72.7589 277.41 72.55C277.597 72.4427 277.775 72.3189 277.94 72.18C277.977 72.2371 278.002 72.301 278.014 72.3679C278.026 72.4349 278.025 72.5036 278.01 72.57C277.518 72.9648 276.919 73.2018 276.29 73.25C276.013 73.2575 275.74 73.1883 275.5 73.05C275.197 72.8409 274.955 72.5543 274.801 72.2201C274.646 71.886 274.583 71.5164 274.62 71.15C274.655 70.0817 274.983 69.0436 275.57 68.15C276.018 67.3828 276.65 66.74 277.41 66.28C277.496 66.2255 277.586 66.1787 277.68 66.14C277.949 65.9667 278.261 65.871 278.581 65.8633C278.901 65.8557 279.216 65.9364 279.493 66.0966C279.77 66.2568 279.998 66.4903 280.151 66.7714C280.304 67.0526 280.376 67.3704 280.36 67.69V67.7Z" fill="#FAFAFA"/>
<path d="M280.38 73.79C280.67 73.62 280.91 73.79 280.91 74.09C280.9 74.2729 280.847 74.4509 280.755 74.6092C280.663 74.7675 280.534 74.9015 280.38 75C280.09 75.17 279.85 75 279.85 74.7C279.859 74.5171 279.913 74.3391 280.005 74.1808C280.097 74.0225 280.226 73.8885 280.38 73.79Z" fill="#E0E0E0"/>
<path d="M283.24 69.36L282.86 69.14C282.833 68.9249 282.76 68.7181 282.646 68.5336C282.532 68.349 282.38 68.191 282.2 68.07C282.017 67.9726 281.815 67.9159 281.608 67.9038C281.401 67.8917 281.193 67.9245 281 68C280.83 68.0585 280.666 68.1322 280.51 68.22C279.786 68.6602 279.182 69.2715 278.75 70C278.202 70.8308 277.891 71.7954 277.85 72.79C277.784 73.0963 277.816 73.4157 277.943 73.7022C278.07 73.9888 278.285 74.2276 278.556 74.3844C278.827 74.5412 279.141 74.6078 279.453 74.5747C279.765 74.5416 280.058 74.4104 280.29 74.2C280.477 74.0835 280.657 73.9566 280.83 73.82C280.904 73.9357 280.929 74.0759 280.9 74.21C280.764 74.3169 280.62 74.4138 280.47 74.5C280.079 74.7437 279.63 74.8784 279.17 74.89C278.893 74.8965 278.62 74.8273 278.38 74.69C278.077 74.4809 277.835 74.1943 277.681 73.8601C277.526 73.526 277.463 73.1564 277.5 72.79C277.538 71.7222 277.866 70.6849 278.45 69.79C278.919 69.0607 279.548 68.4484 280.29 68C280.376 67.9424 280.471 67.8986 280.57 67.87C280.838 67.6963 281.148 67.5999 281.467 67.5915C281.785 67.583 282.1 67.6629 282.377 67.8223C282.653 67.9816 282.88 68.2142 283.032 68.4944C283.185 68.7746 283.256 69.0915 283.24 69.41V69.36Z" fill="#FAFAFA"/>
<path d="M283.26 75.45C283.55 75.28 283.79 75.45 283.79 75.75C283.78 75.9341 283.726 76.1132 283.634 76.273C283.542 76.4327 283.414 76.5687 283.26 76.67C282.97 76.83 282.73 76.67 282.73 76.36C282.74 76.1773 282.794 75.9996 282.886 75.8414C282.978 75.6832 283.106 75.5491 283.26 75.45Z" fill="#E0E0E0"/>
<path opacity="0.1" d="M283.26 75.45C283.55 75.28 283.79 75.45 283.79 75.75C283.78 75.9341 283.726 76.1132 283.634 76.273C283.542 76.4327 283.414 76.5687 283.26 76.67C282.97 76.83 282.73 76.67 282.73 76.36C282.74 76.1773 282.794 75.9996 282.886 75.8414C282.978 75.6832 283.106 75.5491 283.26 75.45Z" fill="black"/>
<path d="M286.12 71L285.74 70.78C285.715 70.5643 285.642 70.3568 285.528 70.172C285.414 69.9872 285.261 69.8295 285.08 69.71C284.886 69.6176 284.675 69.5697 284.46 69.5697C284.245 69.5697 284.034 69.6176 283.84 69.71C283.671 69.7703 283.507 69.8439 283.35 69.93C282.652 70.3683 282.066 70.9642 281.64 71.67C281.092 72.4972 280.781 73.4586 280.74 74.45C280.674 74.7563 280.706 75.0757 280.833 75.3622C280.96 75.6488 281.175 75.8876 281.446 76.0444C281.717 76.2012 282.031 76.2678 282.343 76.2347C282.655 76.2016 282.948 76.0704 283.18 75.86C283.366 75.7467 283.543 75.6197 283.71 75.48C283.784 75.5992 283.81 75.7426 283.78 75.88C283.643 75.9824 283.499 76.076 283.35 76.16C282.964 76.4078 282.518 76.546 282.06 76.56C281.784 76.5626 281.512 76.4937 281.27 76.36C280.968 76.1478 280.727 75.8593 280.572 75.5237C280.418 75.1882 280.355 74.8177 280.39 74.45C280.424 73.383 280.749 72.3455 281.33 71.45C281.79 70.6889 282.424 70.0479 283.18 69.58C283.265 69.5267 283.355 69.4831 283.45 69.45C283.718 69.2757 284.029 69.1791 284.349 69.171C284.669 69.163 284.985 69.2437 285.261 69.4043C285.538 69.5649 285.765 69.7991 285.916 70.0808C286.068 70.3625 286.138 70.6807 286.12 71Z" fill="#FAFAFA"/>
<path d="M286.15 77.11C286.44 76.94 286.67 77.11 286.67 77.41C286.662 77.5934 286.61 77.7722 286.52 77.9321C286.429 78.0919 286.303 78.2282 286.15 78.33C285.85 78.49 285.62 78.33 285.62 78.02C285.629 77.8371 285.683 77.6591 285.775 77.5008C285.867 77.3425 285.996 77.2085 286.15 77.11Z" fill="#E0E0E0"/>
<path d="M289 72.68L288.62 72.46C288.591 72.2453 288.518 72.039 288.404 71.8546C288.29 71.6702 288.139 71.5119 287.96 71.39C287.766 71.2976 287.555 71.2497 287.34 71.2497C287.125 71.2497 286.914 71.2976 286.72 71.39C286.55 71.4465 286.385 71.5202 286.23 71.61C285.527 72.0453 284.937 72.6417 284.51 73.35C283.962 74.1772 283.651 75.1386 283.61 76.13C283.544 76.4363 283.576 76.7557 283.703 77.0422C283.83 77.3288 284.045 77.5676 284.316 77.7244C284.587 77.8812 284.901 77.9478 285.213 77.9147C285.525 77.8816 285.818 77.7504 286.05 77.54C286.238 77.4292 286.415 77.302 286.58 77.16C286.654 77.2792 286.68 77.4226 286.65 77.56C286.516 77.6657 286.376 77.7625 286.23 77.85C285.837 78.0894 285.39 78.2237 284.93 78.24C284.654 78.2426 284.382 78.1737 284.14 78.04C283.836 77.8293 283.594 77.541 283.439 77.2051C283.285 76.8692 283.223 76.4979 283.26 76.13C283.3 75.0796 283.625 74.0598 284.2 73.18C284.659 72.4159 285.293 71.7716 286.05 71.3C286.136 71.2486 286.226 71.2051 286.32 71.17C286.598 71.0203 286.909 70.942 287.225 70.942C287.541 70.942 287.852 71.0203 288.13 71.17C288.386 71.3328 288.599 71.5552 288.751 71.8181C288.902 72.0811 288.988 72.3768 289 72.68Z" fill="#FAFAFA"/>
<path d="M289 78.77C289.29 78.6 289.53 78.77 289.53 79.07C289.521 79.2558 289.469 79.4369 289.376 79.5986C289.284 79.7602 289.155 79.8977 289 80C288.71 80.17 288.47 80 288.47 79.69C288.48 79.5059 288.534 79.3268 288.626 79.167C288.718 79.0073 288.846 78.8713 289 78.77Z" fill="#E0E0E0"/>
<path opacity="0.1" d="M289 78.77C289.29 78.6 289.53 78.77 289.53 79.07C289.521 79.2558 289.469 79.4369 289.376 79.5986C289.284 79.7602 289.155 79.8977 289 80C288.71 80.17 288.47 80 288.47 79.69C288.48 79.5059 288.534 79.3268 288.626 79.167C288.718 79.0073 288.846 78.8713 289 78.77Z" fill="black"/>
<path d="M291.89 74.35L291.51 74.12C291.483 73.9047 291.411 73.6977 291.297 73.513C291.183 73.3284 291.03 73.1705 290.85 73.05C290.656 72.9576 290.445 72.9097 290.23 72.9097C290.015 72.9097 289.804 72.9576 289.61 73.05C289.44 73.1085 289.276 73.1822 289.12 73.27C288.418 73.7024 287.828 74.2953 287.4 75C286.853 75.8309 286.546 76.796 286.51 77.79C286.442 78.0954 286.474 78.4144 286.6 78.7006C286.726 78.9868 286.94 79.2253 287.211 79.3814C287.482 79.5376 287.796 79.6032 288.107 79.5688C288.418 79.5343 288.71 79.4017 288.94 79.19C289.129 79.0769 289.31 78.9499 289.48 78.81C289.555 78.9291 289.58 79.0726 289.55 79.21C289.413 79.3159 289.269 79.4127 289.12 79.5C288.73 79.7382 288.286 79.8724 287.83 79.89C287.551 79.8926 287.275 79.8237 287.03 79.69C286.728 79.4801 286.487 79.1934 286.332 78.8595C286.177 78.5255 286.115 78.1563 286.15 77.79C286.186 76.7233 286.511 75.6864 287.09 74.79C287.552 74.0282 288.186 73.3846 288.94 72.91C289.026 72.8586 289.116 72.8151 289.21 72.78C289.49 72.6303 289.803 72.552 290.12 72.552C290.437 72.552 290.75 72.6303 291.03 72.78C291.291 72.9515 291.505 73.1843 291.655 73.458C291.805 73.7317 291.886 74.038 291.89 74.35Z" fill="#FAFAFA"/>
<path d="M291.91 80.43C292.2 80.26 292.44 80.43 292.44 80.74C292.428 80.9224 292.374 81.0995 292.282 81.2574C292.19 81.4153 292.063 81.5497 291.91 81.65C291.62 81.82 291.39 81.65 291.39 81.34C291.4 81.1583 291.452 80.9815 291.542 80.8235C291.633 80.6655 291.759 80.5308 291.91 80.43Z" fill="#E0E0E0"/>
<path d="M294.77 76L294.39 75.78C294.365 75.5629 294.293 75.354 294.179 75.1675C294.065 74.981 293.912 74.8215 293.73 74.7C293.536 74.6076 293.325 74.5597 293.11 74.5597C292.895 74.5597 292.684 74.6076 292.49 74.7C292.321 74.7523 292.16 74.8263 292.01 74.92C291.303 75.3458 290.712 75.9402 290.29 76.65C289.742 77.4808 289.431 78.4454 289.39 79.44C289.362 79.7394 289.412 80.041 289.537 80.3147C289.661 80.5885 289.856 80.8247 290.1 81C290.38 81.123 290.687 81.1702 290.99 81.1368C291.294 81.1035 291.584 80.9908 291.83 80.81C292.017 80.7027 292.195 80.5789 292.36 80.44C292.397 80.4971 292.422 80.5609 292.434 80.6279C292.446 80.6949 292.445 80.7636 292.43 80.83C292.29 80.94 292.15 81.03 292.01 81.12C291.617 81.3594 291.17 81.4937 290.71 81.51C290.434 81.5126 290.162 81.4437 289.92 81.31C289.617 81.1009 289.375 80.8143 289.221 80.4801C289.066 80.146 289.003 79.7764 289.04 79.41C289.072 78.3427 289.397 77.3048 289.98 76.41C290.44 75.6489 291.074 75.0079 291.83 74.54C291.916 74.4886 292.006 74.4451 292.1 74.41C292.373 74.2493 292.681 74.1596 292.997 74.1491C293.314 74.1386 293.627 74.2077 293.91 74.35C294.182 74.5289 294.404 74.7744 294.555 75.0632C294.705 75.352 294.779 75.6745 294.77 76Z" fill="#FAFAFA"/>
<path d="M294.8 82.09C295.09 81.92 295.32 82.09 295.32 82.4C295.31 82.5817 295.258 82.7585 295.168 82.9165C295.077 83.0744 294.951 83.2092 294.8 83.31C294.51 83.48 294.27 83.31 294.27 83.01C294.28 82.8259 294.334 82.6468 294.426 82.487C294.518 82.3273 294.646 82.1913 294.8 82.09Z" fill="#E0E0E0"/>
<path opacity="0.1" d="M294.8 82.09C295.09 81.92 295.32 82.09 295.32 82.4C295.31 82.5817 295.258 82.7585 295.168 82.9165C295.077 83.0744 294.951 83.2092 294.8 83.31C294.51 83.48 294.27 83.31 294.27 83.01C294.28 82.8259 294.334 82.6468 294.426 82.487C294.518 82.3273 294.646 82.1913 294.8 82.09Z" fill="black"/>
<path d="M297.66 77.68L297.28 77.45C297.27 77.2295 297.205 77.015 297.09 76.8265C296.975 76.6381 296.814 76.4817 296.623 76.3719C296.431 76.2622 296.215 76.2027 295.994 76.1988C295.773 76.195 295.555 76.247 295.36 76.35C295.195 76.4044 295.037 76.4783 294.89 76.57C294.179 76.999 293.585 77.5966 293.16 78.31C292.619 79.14 292.312 80.1003 292.27 81.09C292.236 81.3942 292.284 81.702 292.409 81.9815C292.534 82.261 292.731 82.5021 292.98 82.68C293.258 82.8082 293.567 82.8583 293.871 82.8248C294.176 82.7913 294.466 82.6756 294.71 82.49C294.897 82.3827 295.075 82.2589 295.24 82.12C295.279 82.1763 295.306 82.2399 295.32 82.3069C295.333 82.3739 295.334 82.443 295.32 82.51C295.18 82.62 295.03 82.71 294.89 82.8C294.497 83.0394 294.05 83.1737 293.59 83.19C293.314 83.1926 293.042 83.1237 292.8 82.99C292.497 82.7809 292.255 82.4943 292.101 82.1601C291.946 81.826 291.883 81.4564 291.92 81.09C291.952 80.0227 292.277 78.9848 292.86 78.09C293.32 77.3289 293.954 76.6879 294.71 76.22C294.796 76.1686 294.886 76.1251 294.98 76.09C295.254 75.9293 295.565 75.8396 295.882 75.8291C296.2 75.8187 296.516 75.8877 296.8 76.03C297.071 76.2096 297.293 76.4552 297.443 76.7439C297.594 77.0325 297.668 77.3546 297.66 77.68Z" fill="#FAFAFA"/>
<path d="M297.68 83.75C297.97 83.59 298.21 83.75 298.21 84.06C298.198 84.2424 298.144 84.4195 298.052 84.5774C297.96 84.7353 297.833 84.8697 297.68 84.97C297.39 85.14 297.15 84.97 297.15 84.67C297.16 84.4859 297.214 84.3068 297.306 84.147C297.398 83.9873 297.526 83.8513 297.68 83.75Z" fill="#E0E0E0"/>
<path d="M300.54 79.34L300.16 79.12C300.151 78.8988 300.086 78.6835 299.972 78.4939C299.858 78.3043 299.697 78.1465 299.506 78.035C299.315 77.9234 299.099 77.8618 298.878 77.8557C298.656 77.8496 298.437 77.8992 298.24 78C298.075 78.0544 297.917 78.1283 297.77 78.22C297.04 78.6549 296.431 79.2671 296 80C295.462 80.8306 295.158 81.791 295.12 82.78C295.087 83.0831 295.135 83.3896 295.257 83.6686C295.38 83.9477 295.574 84.1895 295.82 84.37C296.099 84.4982 296.407 84.5483 296.711 84.5148C297.016 84.4813 297.306 84.3656 297.55 84.18C297.739 84.0705 297.92 83.9468 298.09 83.81C298.127 83.867 298.152 83.9309 298.164 83.9979C298.176 84.0649 298.175 84.1336 298.16 84.2C298.023 84.3059 297.88 84.4027 297.73 84.49C297.341 84.7305 296.897 84.8681 296.44 84.89C296.16 84.8882 295.885 84.816 295.64 84.68C295.337 84.4709 295.095 84.1843 294.941 83.8501C294.786 83.516 294.724 83.1464 294.76 82.78C294.789 81.7108 295.119 80.6713 295.71 79.78C296.16 79.0122 296.792 78.3667 297.55 77.9C297.634 77.8507 297.72 77.8073 297.81 77.77C298.086 77.6093 298.398 77.5196 298.717 77.5092C299.037 77.4987 299.354 77.5677 299.64 77.71C299.917 77.8816 300.146 78.1217 300.303 78.4072C300.461 78.6927 300.543 79.0139 300.54 79.34Z" fill="#FAFAFA"/>
<path d="M243.82 250.09L239.28 247.46L243.82 246.15V250.09Z" fill="#0C79FF"/>
<path opacity="0.6" d="M243.82 250.09L239.28 247.46L243.82 246.15V250.09Z" fill="white"/>
<path opacity="0.5" d="M243.82 250.09L239.28 247.46L243.82 246.15V250.09Z" fill="#0C79FF"/>
<path d="M243.82 250.09L246.09 248.78V244.84L243.82 246.15V250.09Z" fill="#0C79FF"/>
<path opacity="0.65" d="M243.82 250.09L246.09 248.78V244.84L243.82 246.15V250.09Z" fill="white"/>
<path d="M221.06 259.3V263.48L194.15 247.92V243.74L221.06 259.3Z" fill="#0C79FF"/>
<path opacity="0.6" d="M221.06 259.3V263.48L194.15 247.92V243.74L221.06 259.3Z" fill="white"/>
<path opacity="0.5" d="M221.06 259.3V263.48L194.15 247.92V243.74L221.06 259.3Z" fill="#0C79FF"/>
<path d="M221.06 263.48L223.33 262.17V257.99L221.06 259.3V263.48Z" fill="#0C79FF"/>
<path opacity="0.65" d="M221.06 263.48L223.33 262.17V257.99L221.06 259.3V263.48Z" fill="white"/>
<path d="M191.88 210.94L218.78 226.49V260.61L191.88 245.05V210.94Z" fill="#0C79FF"/>
<path opacity="0.5" d="M191.88 210.94L218.78 226.49V260.61L191.88 245.05V210.94Z" fill="white"/>
<path d="M218.78 226.49L248.37 209.41V243.53L218.78 260.61V226.49Z" fill="#0C79FF"/>
<path opacity="0.65" d="M218.78 226.49L248.37 209.41V243.53L218.78 260.61V226.49Z" fill="white"/>
<path d="M248.37 209.41L221.46 193.86L191.88 210.94L218.78 226.49L248.37 209.41Z" fill="#0C79FF"/>
<path opacity="0.75" d="M248.37 209.41L221.46 193.86L191.88 210.94L218.78 226.49L248.37 209.41Z" fill="white"/>
<path opacity="0.45" d="M219.66 205.03L212.57 200.93L196.36 210.3L203.44 214.39L219.66 205.03Z" fill="#0C79FF"/>
<path d="M221.06 238.3L246.09 223.85V242.22L221.06 256.67V238.3Z" fill="#0C79FF"/>
<path opacity="0.6" d="M221.06 238.3L246.09 223.85V242.22L221.06 256.67V238.3Z" fill="white"/>
<path opacity="0.3" d="M246.09 242.22L230.29 232.97L221.06 238.3V256.67L246.09 242.22Z" fill="#0C79FF"/>
<path opacity="0.5" d="M246.09 242.22L230.29 232.97L246.09 223.85V242.22Z" fill="#0C79FF"/>
<path d="M221.06 227.81L246.09 213.35V221.22L221.06 235.68V227.81Z" fill="#0C79FF"/>
<path opacity="0.75" d="M221.06 227.81L246.09 213.35V221.22L221.06 235.68V227.81Z" fill="white"/>
<path d="M228.82 225C228.82 225.37 229.9 225 231.24 224.26L235.48 221.81C236.82 221.04 237.91 220.12 237.91 219.81V219.15L228.82 224.4V225Z" fill="#455A64"/>
<path opacity="0.05" d="M234.45 208.33C236.58 209.56 236.58 211.55 234.45 212.78C233.255 213.386 231.935 213.702 230.595 213.702C229.255 213.702 227.935 213.386 226.74 212.78C224.61 211.55 224.61 209.56 226.74 208.33C227.935 207.724 229.255 207.408 230.595 207.408C231.935 207.408 233.255 207.724 234.45 208.33Z" fill="black"/>
<path d="M227.12 211.43C225.27 209.54 224.18 204.81 225.99 203.31H235.2C237.01 204.81 235.92 209.53 234.06 211.43H234.01L233.95 211.49L233.78 211.64L233.64 211.74L233.4 211.9C232.543 212.334 231.596 212.56 230.635 212.56C229.674 212.56 228.727 212.334 227.87 211.9L227.63 211.74L227.5 211.64H227.44L227.28 211.5L227.21 211.42L227.12 211.43Z" fill="#F5F5F5"/>
<path d="M234.4 202.59C236.5 203.8 236.5 205.77 234.4 206.98C233.22 207.577 231.917 207.888 230.595 207.888C229.273 207.888 227.97 207.577 226.79 206.98C224.69 205.77 224.69 203.8 226.79 202.59C227.968 201.989 229.272 201.675 230.595 201.675C231.918 201.675 233.222 201.989 234.4 202.59Z" fill="white"/>
<path d="M232.91 203.45C234.19 204.19 234.19 205.38 232.91 206.12C232.193 206.484 231.4 206.674 230.595 206.674C229.79 206.674 228.997 206.484 228.28 206.12C227 205.38 227 204.19 228.28 203.45C228.997 203.086 229.79 202.896 230.595 202.896C231.4 202.896 232.193 203.086 232.91 203.45Z" fill="#EBEBEB"/>
<path d="M228.28 204.72C228.997 204.356 229.79 204.166 230.595 204.166C231.4 204.166 232.193 204.356 232.91 204.72C233.22 204.883 233.482 205.124 233.67 205.42C233.477 205.711 233.216 205.951 232.91 206.12C232.193 206.484 231.4 206.674 230.595 206.674C229.79 206.674 228.997 206.484 228.28 206.12C227.971 205.951 227.707 205.711 227.51 205.42C227.7 205.123 227.966 204.881 228.28 204.72Z" fill="#E0E0E0"/>
<path d="M232.63 205.42C233.284 204.754 233.845 204.004 234.3 203.19C235.07 201.82 235.22 199.99 234.82 199.77C234.42 199.55 232.82 201.37 232.82 201.37C232.975 200.59 233.035 199.794 233 199C233.044 198.099 232.795 197.208 232.29 196.46C231.94 196.23 231.16 197.77 230.82 198.88C230.48 199.99 230.29 200.88 230.29 200.88C230.154 200.013 229.954 199.157 229.69 198.32C229.28 197.16 228.92 196.9 228.63 197.02C228.34 197.14 228.16 197.67 228.07 199.21C228.039 199.944 228.062 200.679 228.14 201.41C228.14 201.41 227.57 200.78 226.93 200.17C226.29 199.56 225.93 199.41 225.73 199.53C225.53 199.65 225.48 200.71 226.56 202.67C227.084 203.664 227.759 204.572 228.56 205.36C229.191 205.674 229.884 205.842 230.588 205.852C231.293 205.863 231.99 205.715 232.63 205.42Z" fill="#0C79FF"/>
<path opacity="0.2" d="M232.63 205.42C233.284 204.754 233.845 204.004 234.3 203.19C235.07 201.82 235.22 199.99 234.82 199.77C234.42 199.55 232.82 201.37 232.82 201.37C232.975 200.59 233.035 199.794 233 199C233.044 198.099 232.795 197.208 232.29 196.46C231.94 196.23 231.16 197.77 230.82 198.88C230.48 199.99 230.29 200.88 230.29 200.88C230.154 200.013 229.954 199.157 229.69 198.32C229.28 197.16 228.92 196.9 228.63 197.02C228.34 197.14 228.16 197.67 228.07 199.21C228.039 199.944 228.062 200.679 228.14 201.41C228.14 201.41 227.57 200.78 226.93 200.17C226.29 199.56 225.93 199.41 225.73 199.53C225.53 199.65 225.48 200.71 226.56 202.67C227.084 203.664 227.759 204.572 228.56 205.36C229.191 205.674 229.884 205.842 230.588 205.852C231.293 205.863 231.99 205.715 232.63 205.42Z" fill="black"/>
<path d="M204.19 211.52L204.87 211.86L217.63 204.61L216.95 204.28L204.19 211.52Z" fill="#37474F"/>
<path d="M216.95 204.28L204.81 211.17L203.18 193.07L215.31 186.19L216.95 204.28Z" fill="white"/>
<path d="M217 183.88L201.9 192.46L203.82 213.8L218.93 205.22L217 183.88ZM217.64 204.61L204.88 211.86L203.19 193.07L215.95 185.83L217.64 204.61Z" fill="#455A64"/>
<path d="M217.63 204.61L216.95 204.28L215.31 186.19L215.94 185.83L217.63 204.61Z" fill="#263238"/>
<path d="M216.99 183.88L216.3 183.56L201.2 192.14L201.89 192.46L216.99 183.88Z" fill="#37474F"/>
<path d="M201.2 192.14L201.89 192.46L203.81 213.8L203.12 213.48L201.2 192.14Z" fill="#263238"/>
<path d="M216.42 203.93L205.23 210.28L204.95 207.24L207.09 198.3L209.04 201.37L208.62 203.94L211.98 194.47L216.14 200.88L216.42 203.93Z" fill="#0C79FF"/>
<path d="M206.94 194.53C206.707 194.676 206.517 194.88 206.387 195.122C206.257 195.364 206.193 195.636 206.2 195.91C206.2 196.4 206.65 196.6 207.11 196.34C207.342 196.196 207.532 195.993 207.662 195.753C207.792 195.513 207.856 195.243 207.85 194.97C207.81 194.47 207.4 194.27 206.94 194.53Z" fill="#0C79FF"/>
<g opacity="0.65">
<path d="M216.42 203.93L205.23 210.28L204.95 207.24L207.09 198.3L209.04 201.37L208.62 203.94L211.98 194.47L216.14 200.88L216.42 203.93Z" fill="white"/>
<path d="M206.94 194.53C206.707 194.676 206.517 194.88 206.387 195.122C206.257 195.364 206.193 195.636 206.2 195.91C206.2 196.4 206.65 196.6 207.11 196.34C207.342 196.196 207.532 195.993 207.662 195.753C207.792 195.513 207.856 195.243 207.85 194.97C207.81 194.47 207.4 194.27 206.94 194.53Z" fill="white"/>
</g>
<path d="M382.42 351.12L381.61 339.65L376.06 336.44L379.24 349.29L382.42 351.12Z" fill="#B16668"/>
<path d="M382.42 351.12L385.59 349.29L385.53 337.38L381.61 339.65L382.42 351.12Z" fill="#9A4A4D"/>
<path d="M421.37 328.64L420.57 317.16L415.01 313.95L418.19 326.8L421.37 328.64Z" fill="#B16668"/>
<path d="M421.37 328.64L424.55 326.8L424.49 314.9L420.57 317.16L421.37 328.64Z" fill="#9A4A4D"/>
<path d="M328.71 320.12L329.51 309.57L335.07 312.77L331.89 321.95L328.71 320.12Z" fill="#B16668"/>
<path d="M331.89 321.95L335.07 320.12L338.99 310.51L335.07 312.78L331.89 321.95Z" fill="#9A4A4D"/>
<path d="M382.42 339.18L328.19 307.88V311.55L382.42 342.86V339.18Z" fill="#B16668"/>
<path d="M426.93 317.15L382.42 342.86V339.18L426.93 313.48V317.15Z" fill="#9A4A4D"/>
<path d="M382.42 339.18L328.19 307.88L372.7 282.18L426.93 313.48L382.42 339.18Z" fill="#9A4A4D"/>
<path d="M328.13 285.28V304.67C328.19 305.749 328.503 306.799 329.043 307.736C329.583 308.672 330.336 309.468 331.24 310.06L332.14 310.58C333.343 311.17 334.689 311.403 336.02 311.25L375.23 332.09C375.321 333.125 375.645 334.127 376.176 335.02C376.708 335.914 377.434 336.676 378.3 337.25L379.19 337.77L379.43 337.89C379.471 337.914 379.515 337.934 379.56 337.95C381.091 338.588 382.797 338.666 384.38 338.17C384.564 338.115 384.745 338.049 384.92 337.97H385C385.13 337.92 385.25 337.85 385.37 337.79L425.8 314.44C426.705 313.851 427.458 313.056 427.998 312.122C428.538 311.187 428.851 310.138 428.91 309.06V267.06C428.85 265.981 428.537 264.931 427.997 263.995C427.457 263.058 426.704 262.262 425.8 261.67L377.8 233.92C376.836 233.432 375.771 233.177 374.69 233.177C373.609 233.177 372.544 233.432 371.58 233.92L369.05 235.38C368.125 235.986 367.331 236.772 366.716 237.691C366.101 238.61 365.677 239.644 365.47 240.73L363.03 261.47L331.14 279.88C330.253 280.484 329.519 281.287 328.996 282.224C328.474 283.161 328.177 284.208 328.13 285.28Z" fill="#37474F"/>
<path d="M369.15 235.39L371.68 233.93C372.644 233.442 373.709 233.187 374.79 233.187C375.871 233.187 376.936 233.442 377.9 233.93L425.9 261.68C426.003 261.752 426.11 261.819 426.22 261.88C427.715 263.01 428.703 264.685 428.97 266.54C428.74 264.96 427.45 264.38 425.9 265.27L423.37 266.74C422.406 267.228 421.341 267.483 420.26 267.483C419.179 267.483 418.114 267.228 417.15 266.74L369.15 238.98C367.43 238 367.43 236.38 369.15 235.39Z" fill="#455A64"/>
<path d="M328.13 285.28V304.67C328.19 305.749 328.503 306.799 329.043 307.736C329.583 308.672 330.336 309.468 331.24 310.06L332.14 310.58C333.263 311.151 334.526 311.39 335.78 311.27C336.665 311.218 337.527 310.976 338.31 310.56L367.12 294C368.024 293.41 368.776 292.615 369.316 291.681C369.856 290.746 370.169 289.698 370.23 288.62V269.22C370.172 268.142 369.86 267.093 369.319 266.158C368.779 265.223 368.025 264.429 367.12 263.84L363.12 261.52L331.23 279.93C330.333 280.519 329.585 281.31 329.047 282.238C328.509 283.167 328.195 284.209 328.13 285.28Z" fill="#263238"/>
<path d="M363.12 261.48L367.12 263.8C368.83 264.8 368.83 266.4 367.12 267.39L338.35 284C337.448 284.592 336.698 285.387 336.16 286.321C335.621 287.255 335.31 288.303 335.25 289.38V308.78C335.25 310.78 333.85 311.56 332.14 310.58L331.24 310.06C330.336 309.468 329.583 308.672 329.043 307.736C328.503 306.799 328.19 305.749 328.13 304.67V285.27C328.192 284.192 328.505 283.144 329.045 282.21C329.585 281.276 330.337 280.481 331.24 279.89L363.12 261.48Z" fill="#455A64"/>
<path d="M335.25 289.38V308.78C335.25 310.78 333.85 311.56 332.14 310.58L331.24 310.06C330.336 309.468 329.583 308.672 329.043 307.736C328.503 306.799 328.19 305.749 328.13 304.67V285.27C328.17 284.188 328.487 283.135 329.05 282.21L336.16 286.32C335.604 287.247 335.291 288.3 335.25 289.38Z" fill="#37474F"/>
<path d="M336.54 311.29C336.836 311.909 337.216 312.485 337.67 313C338.553 313.794 339.539 314.467 340.6 315C351.53 321.32 360.6 326.56 371.51 332.87C371.989 333.117 372.521 333.245 373.06 333.245C373.599 333.245 374.13 333.117 374.61 332.87L384.72 327.03L404.94 315.36C405.877 314.863 406.662 314.12 407.209 313.211C407.756 312.302 408.045 311.261 408.045 310.2C408.045 309.139 407.756 308.098 407.209 307.189C406.662 306.28 405.877 305.537 404.94 305.04L393.47 298.41L384.72 293.41L374.06 287.23C373.095 286.744 372.03 286.491 370.95 286.491C369.87 286.491 368.805 286.744 367.84 287.23L339.07 303.84C337.36 304.84 335.96 305.6 335.96 307.84C335.976 309.013 336.171 310.176 336.54 311.29Z" fill="#263238"/>
<path d="M371.5 326.18L337.5 306.53C336.64 306.04 335.94 306.44 335.94 307.43V310.57C335.969 311.111 336.125 311.638 336.396 312.107C336.668 312.576 337.046 312.975 337.5 313.27L371.5 332.91C372.35 333.41 373.05 333.01 373.05 332.01V328.87C373.021 328.331 372.866 327.807 372.597 327.34C372.327 326.872 371.952 326.475 371.5 326.18Z" fill="#37474F"/>
<path d="M374.42 276.25L404.94 293.9C405.845 294.489 406.599 295.283 407.139 296.218C407.68 297.153 407.992 298.202 408.05 299.28V301.37C407.992 302.448 407.68 303.497 407.139 304.432C406.599 305.367 405.845 306.161 404.94 306.75L376.17 323.37C375.206 323.858 374.141 324.113 373.06 324.113C371.979 324.113 370.914 323.858 369.95 323.37L339.43 305.72C338.525 305.131 337.771 304.337 337.231 303.402C336.69 302.467 336.378 301.418 336.32 300.34V298.25C336.377 297.17 336.688 296.119 337.229 295.182C337.769 294.245 338.523 293.45 339.43 292.86L368.2 276.25C369.164 275.762 370.229 275.507 371.31 275.507C372.391 275.507 373.456 275.762 374.42 276.25Z" fill="#37474F"/>
<path d="M373.06 314.84V324.11C374.142 324.129 375.212 323.874 376.17 323.37L404.94 306.76C405.845 306.169 406.598 305.372 407.138 304.436C407.678 303.5 407.991 302.449 408.05 301.37V299.28C407.989 298.266 407.707 297.277 407.226 296.383C406.744 295.488 406.073 294.709 405.26 294.1C406.65 295.1 406.54 296.56 404.94 297.49L376.17 314.1C375.212 314.603 374.142 314.857 373.06 314.84Z" fill="#263238"/>
<path d="M370 314.1L339.48 296.45C337.76 295.45 337.76 293.85 339.48 292.86L368.25 276.25C369.214 275.762 370.279 275.507 371.36 275.507C372.441 275.507 373.506 275.762 374.47 276.25L404.99 293.9C406.71 294.9 406.71 296.49 404.99 297.48L376.17 314.1C375.213 314.58 374.156 314.83 373.085 314.83C372.014 314.83 370.957 314.58 370 314.1Z" fill="#455A64"/>
<path d="M390.57 260C392.57 259.81 394.21 262.1 397.57 263.72C402.167 265.811 406.219 268.936 409.41 272.85C412.29 276.21 413.41 275.64 414.26 277.73C415.11 279.82 412.71 280.73 411.55 283.73C409.55 288.73 407.16 292.08 404.64 294.17C400.17 297.85 400.85 300.41 398.82 300.38C396.79 300.35 396.82 298.5 393.41 297.18C385.41 294.06 382.07 291.27 378.35 285.77C376.9 283.62 375.05 283.77 374.7 281.77C374.52 280.77 376.03 280.17 377.39 276.92C379.65 271.5 383.27 266.43 386.79 263.79C388.29 262.54 388.55 260.19 390.57 260Z" fill="#0C79FF"/>
<path opacity="0.3" d="M390.57 260C392.57 259.81 394.21 262.1 397.57 263.72C402.167 265.811 406.219 268.936 409.41 272.85C412.29 276.21 413.41 275.64 414.26 277.73C415.11 279.82 412.71 280.73 411.55 283.73C409.55 288.73 407.16 292.08 404.64 294.17C400.17 297.85 400.85 300.41 398.82 300.38C396.79 300.35 396.82 298.5 393.41 297.18C385.41 294.06 382.07 291.27 378.35 285.77C376.9 283.62 375.05 283.77 374.7 281.77C374.52 280.77 376.03 280.17 377.39 276.92C379.65 271.5 383.27 266.43 386.79 263.79C388.29 262.54 388.55 260.19 390.57 260Z" fill="black"/>
<path opacity="0.2" d="M412 281.2C410.3 283.61 410.53 286.01 407 290.44C403.64 294.69 401.21 295.89 400.21 297.8C399.37 299.38 398.21 300.12 397.96 298.27C397.71 296.42 399.14 291.11 402.52 286.57C406.42 281.34 408.91 279.34 410.59 278.57C413.28 277.37 413.37 279.3 412 281.2Z" fill="black"/>
<path opacity="0.2" d="M384.85 292.77C387.493 294.577 390.356 296.039 393.37 297.12C394.624 297.596 395.753 298.351 396.67 299.33C395.55 297.81 395.46 295.84 393.24 295.08C391.63 294.52 387.69 294.27 384.85 292.77ZM374.78 282.16C375.33 283.72 376.98 283.75 378.31 285.71C379.45 287.46 380.767 289.089 382.24 290.57C380.58 288.4 380.72 286.15 379.34 284.88C377.68 283.35 376 283.7 374.78 282.16Z" fill="black"/>
<path opacity="0.3" d="M393.34 264.78C398.23 265.671 402.698 268.127 406.07 271.78C406.389 272.158 406.631 272.596 406.78 273.068C406.929 273.54 406.984 274.037 406.94 274.53C406.9 275.15 406.704 275.751 406.37 276.275C406.036 276.8 405.575 277.231 405.03 277.53C403.802 278.069 402.442 278.236 401.12 278.01C398.67 277.69 397.22 277.01 394.05 277.01C392.885 277.026 391.741 277.317 390.71 277.86C389.15 278.73 387.98 279.71 386.61 280.44C384.72 281.44 381.37 280.99 380.21 279.83C379.05 278.67 378.69 276.72 379.8 274.38C382.27 269.13 386.88 264.06 393.34 264.78Z" fill="#0C79FF"/>
<path d="M382.37 336V316.62C382.43 315.541 382.743 314.491 383.283 313.555C383.823 312.618 384.576 311.822 385.48 311.23L417.36 292.83L419.81 272.09C420.016 271.003 420.439 269.969 421.055 269.05C421.67 268.131 422.464 267.345 423.39 266.74L425.92 265.27C427.63 264.27 429.03 265.09 429.03 267.07V309.07C428.969 310.148 428.656 311.196 428.116 312.131C427.576 313.065 426.824 313.86 425.92 314.45L385.48 337.8C383.77 338.8 382.37 338 382.37 336Z" fill="#263238"/>
<path d="M375.26 312.5V331.9C375.255 331.97 375.255 332.04 375.26 332.11C375.351 333.145 375.675 334.147 376.206 335.04C376.738 335.934 377.464 336.696 378.33 337.27L379.22 337.79L379.46 337.91C379.501 337.934 379.545 337.954 379.59 337.97L379.84 338.06C381.309 338.598 382.913 338.644 384.41 338.19C384.594 338.135 384.775 338.069 384.95 337.99C383.45 338.61 382.3 337.77 382.29 335.99V316.62C382.35 315.541 382.663 314.491 383.203 313.555C383.743 312.618 384.496 311.822 385.4 311.23L391.04 307.98L417.29 292.83L413.29 290.51C412.323 290.031 411.259 289.781 410.18 289.781C409.101 289.781 408.037 290.031 407.07 290.51L384 303.87L378.37 307.12C377.465 307.709 376.712 308.504 376.172 309.438C375.632 310.373 375.319 311.422 375.26 312.5Z" fill="#455A64"/>
<path d="M382.37 316.62V336C382.37 337.79 383.53 338.63 385.03 338C384.855 338.079 384.674 338.145 384.49 338.2C382.993 338.654 381.389 338.608 379.92 338.07L379.67 337.98C379.625 337.964 379.581 337.944 379.54 337.92L379.3 337.8L378.41 337.28C377.544 336.706 376.818 335.944 376.286 335.05C375.755 334.157 375.431 333.155 375.34 332.12C375.335 332.05 375.335 331.98 375.34 331.91V312.5C375.381 311.42 375.694 310.367 376.25 309.44L383.37 313.55C382.777 314.47 382.432 315.527 382.37 316.62Z" fill="#37474F"/>
<path d="M278.7 401C278.74 403.003 278.305 404.987 277.43 406.79C277.16 407.33 276.87 407.79 276.7 408.18C276.34 408.94 276.62 409.18 277.1 408.86C277.8 408.37 281.37 403.33 282.76 398.64L278.7 401Z" fill="#E0E0E0"/>
<path d="M274.5 409.84C274.544 408.913 274.807 408.011 275.265 407.204C275.724 406.398 276.366 405.711 277.14 405.2C277.417 404.992 277.748 404.867 278.093 404.841C278.439 404.814 278.784 404.887 279.09 405.05L280.89 406.05L277.11 412.57L275.32 411.57C275.039 411.383 274.815 411.123 274.67 410.819C274.526 410.514 274.467 410.176 274.5 409.84Z" fill="#37474F"/>
<path d="M279 406.27C278.226 406.779 277.584 407.464 277.125 408.269C276.667 409.073 276.404 409.975 276.36 410.9C276.36 412.6 277.57 413.28 279.04 412.42C279.811 411.908 280.45 411.223 280.907 410.419C281.364 409.614 281.625 408.714 281.67 407.79C281.67 406.09 280.48 405.41 279 406.27Z" fill="#455A64"/>
<path d="M279.93 408.82C279.93 408.15 279.52 407.82 279.02 408.14C278.746 408.338 278.522 408.597 278.367 408.898C278.212 409.199 278.131 409.532 278.13 409.87C278.13 410.54 278.54 410.87 279.04 410.55C279.311 410.349 279.532 410.089 279.687 409.789C279.841 409.489 279.924 409.157 279.93 408.82Z" fill="#263238"/>
<path d="M280.57 402C280.611 404.002 280.18 405.986 279.31 407.79C279.04 408.33 278.74 408.79 278.57 409.19C278.21 409.95 278.5 410.19 278.98 409.86C279.67 409.38 283.24 404.33 284.63 399.65L280.57 402Z" fill="#F5F5F5"/>
<path d="M279 409C278.92 409.045 278.852 409.108 278.801 409.184C278.751 409.261 278.719 409.349 278.71 409.44C278.71 409.61 278.82 409.68 278.97 409.61C279.049 409.562 279.117 409.496 279.167 409.419C279.217 409.341 279.249 409.252 279.26 409.16C279.23 409 279.12 408.93 279 409Z" fill="#263238"/>
<path d="M251.5 385.24C251.54 387.243 251.105 389.227 250.23 391.03C249.96 391.57 249.67 392.03 249.5 392.42C249.14 393.18 249.42 393.42 249.9 393.09C250.6 392.61 254.17 387.57 255.56 382.88L251.5 385.24Z" fill="#E0E0E0"/>
<path d="M247.3 394.13C247.345 393.205 247.606 392.303 248.063 391.497C248.52 390.691 249.159 390.004 249.93 389.49C250.213 389.274 250.553 389.145 250.908 389.119C251.263 389.092 251.618 389.169 251.93 389.34L253.73 390.34L249.95 396.86L248.16 395.86C247.87 395.68 247.637 395.422 247.485 395.117C247.333 394.811 247.269 394.47 247.3 394.13Z" fill="#37474F"/>
<path d="M251.81 390.56C251.036 391.069 250.393 391.753 249.934 392.558C249.475 393.363 249.213 394.265 249.17 395.19C249.17 396.89 250.38 397.57 251.85 396.71C252.621 396.198 253.26 395.513 253.717 394.709C254.174 393.904 254.435 393.004 254.48 392.08C254.47 390.38 253.27 389.7 251.81 390.56Z" fill="#455A64"/>
<path d="M252.73 393.11C252.73 392.44 252.32 392.11 251.82 392.43C251.546 392.628 251.322 392.887 251.167 393.188C251.012 393.489 250.931 393.822 250.93 394.16C250.93 394.82 251.34 395.16 251.84 394.84C252.111 394.639 252.332 394.379 252.487 394.079C252.641 393.779 252.724 393.447 252.73 393.11Z" fill="#263238"/>
<path d="M253.37 386.3C253.411 388.302 252.98 390.286 252.11 392.09C251.83 392.63 251.54 393.09 251.37 393.48C251.01 394.25 251.3 394.48 251.77 394.16C252.47 393.68 256.04 388.63 257.43 383.95L253.37 386.3Z" fill="#F5F5F5"/>
<path d="M251.76 393.29C251.681 393.338 251.613 393.403 251.563 393.481C251.513 393.559 251.481 393.648 251.47 393.74C251.47 393.91 251.58 393.98 251.73 393.91C251.809 393.862 251.877 393.796 251.927 393.719C251.977 393.641 252.009 393.552 252.02 393.46C252 393.29 251.92 393.22 251.76 393.29Z" fill="#263238"/>
<path d="M312.25 381.66C312.297 383.663 311.865 385.648 310.99 387.45C310.72 387.99 310.43 388.45 310.26 388.84C309.9 389.61 310.18 389.84 310.66 389.52C311.36 389.04 314.93 383.99 316.32 379.31L312.25 381.66Z" fill="#E0E0E0"/>
<path d="M308.06 390.55C308.105 389.625 308.366 388.723 308.823 387.917C309.28 387.111 309.919 386.424 310.69 385.91C310.967 385.702 311.298 385.577 311.643 385.551C311.989 385.524 312.334 385.597 312.64 385.76L314.45 386.76L310.67 393.28L308.88 392.28C308.597 392.095 308.37 391.836 308.226 391.531C308.081 391.225 308.024 390.886 308.06 390.55Z" fill="#37474F"/>
<path d="M312.57 387C311.796 387.509 311.154 388.194 310.695 388.999C310.237 389.803 309.974 390.705 309.93 391.63C309.93 393.33 311.14 394.01 312.61 393.15C313.381 392.638 314.02 391.953 314.477 391.149C314.934 390.344 315.195 389.444 315.24 388.52C315.23 386.8 314 386.12 312.57 387Z" fill="#455A64"/>
<path d="M313.48 389.53C313.48 388.86 313.07 388.53 312.58 388.85C312.305 389.048 312.082 389.307 311.927 389.608C311.772 389.909 311.691 390.242 311.69 390.58C311.69 391.25 312.1 391.58 312.59 391.26C312.864 391.062 313.088 390.803 313.243 390.502C313.398 390.201 313.479 389.868 313.48 389.53Z" fill="#263238"/>
<path d="M314.13 382.72C314.17 384.726 313.735 386.714 312.86 388.52C312.59 389.05 312.3 389.52 312.13 389.91C311.77 390.67 312.05 390.91 312.53 390.58C313.23 390.1 316.8 385.06 318.19 380.37L314.13 382.72Z" fill="#F5F5F5"/>
<path d="M312.52 389.72C312.44 389.765 312.372 389.828 312.321 389.904C312.271 389.981 312.239 390.069 312.23 390.16C312.23 390.33 312.34 390.4 312.49 390.33C312.569 390.282 312.637 390.217 312.687 390.139C312.737 390.061 312.769 389.972 312.78 389.88C312.79 389.72 312.67 389.64 312.52 389.72Z" fill="#263238"/>
<path d="M285.05 366C285.096 368.003 284.664 369.988 283.79 371.79C283.52 372.33 283.23 372.79 283.06 373.18C282.7 373.94 282.98 374.18 283.46 373.86C284.16 373.37 287.73 368.33 289.12 363.64L285.05 366Z" fill="#E0E0E0"/>
<path d="M280.86 374.84C280.905 373.915 281.166 373.013 281.623 372.207C282.08 371.401 282.719 370.714 283.49 370.2C283.767 369.992 284.098 369.867 284.443 369.841C284.789 369.814 285.134 369.887 285.44 370.05L287.25 371.05L283.47 377.57L281.68 376.57C281.398 376.385 281.172 376.125 281.027 375.82C280.883 375.515 280.825 375.176 280.86 374.84Z" fill="#37474F"/>
<path d="M285.37 371.27C284.596 371.779 283.954 372.464 283.495 373.269C283.036 374.073 282.774 374.975 282.73 375.9C282.73 377.6 283.94 378.28 285.4 377.42C286.174 376.911 286.816 376.226 287.275 375.421C287.733 374.617 287.996 373.715 288.04 372.79C288 371.09 286.83 370.41 285.37 371.27Z" fill="#455A64"/>
<path d="M286.28 373.82C286.28 373.15 285.87 372.82 285.38 373.14C285.106 373.338 284.882 373.597 284.727 373.898C284.572 374.199 284.491 374.532 284.49 374.87C284.49 375.54 284.9 375.87 285.39 375.55C285.665 375.352 285.888 375.093 286.043 374.792C286.198 374.491 286.279 374.158 286.28 373.82Z" fill="#263238"/>
<path d="M286.93 367C286.971 369.003 286.536 370.988 285.66 372.79C285.39 373.33 285.1 373.79 284.93 374.19C284.57 374.95 284.85 375.19 285.33 374.86C286.03 374.38 289.6 369.34 290.99 364.65L286.93 367Z" fill="#F5F5F5"/>
<path d="M285.32 374C285.24 374.045 285.172 374.108 285.121 374.184C285.071 374.261 285.039 374.349 285.03 374.44C285.03 374.61 285.14 374.68 285.29 374.61C285.369 374.562 285.437 374.496 285.487 374.419C285.537 374.341 285.569 374.252 285.58 374.16C285.59 374 285.47 373.93 285.32 374Z" fill="#263238"/>
<path d="M319.83 376.66C319.814 376.445 319.739 376.238 319.614 376.061C319.489 375.885 319.318 375.747 319.12 375.66L293.41 360.82C292.884 360.551 292.301 360.411 291.71 360.411C291.119 360.411 290.536 360.551 290.01 360.82L245.54 386.45C245.342 386.537 245.171 386.675 245.046 386.852C244.921 387.028 244.846 387.235 244.83 387.45C244.83 387.8 244.83 390.3 244.83 390.65C244.847 390.865 244.923 391.072 245.048 391.248C245.173 391.424 245.343 391.563 245.54 391.65L271.26 406.49C271.787 406.761 272.372 406.902 272.965 406.902C273.558 406.902 274.143 406.761 274.67 406.49L319.13 380.87C319.326 380.782 319.495 380.643 319.618 380.467C319.741 380.291 319.815 380.084 319.83 379.87C319.83 379.53 319.84 377 319.83 376.66ZM314.2 378.27L273 402L250.51 389L291.75 365.24L314.2 378.27Z" fill="#E6E6E6"/>
<path d="M290 360.83L245.53 386.46C245.265 386.46 245.01 386.565 244.823 386.753C244.635 386.94 244.53 387.195 244.53 387.46C244.53 387.725 244.635 387.98 244.823 388.167C245.01 388.355 245.265 388.46 245.53 388.46L271.25 403.31C271.779 403.576 272.363 403.715 272.955 403.715C273.547 403.715 274.131 403.576 274.66 403.31L319.12 377.69C320.06 377.14 320.05 376.27 319.12 375.69L293.41 360.85C292.884 360.577 292.3 360.432 291.707 360.429C291.114 360.425 290.529 360.563 290 360.83ZM317 376.66L273 402L247.72 387.4L291.72 362.02L317 376.66Z" fill="#FAFAFA"/>
<path d="M275.19 367.77L272.91 369.08V394.53L275.19 393.22V367.77Z" fill="#EBEBEB"/>
<path d="M270.63 367.77L272.91 369.08V394.53L270.63 393.22V367.77Z" fill="#E0E0E0"/>
<path d="M293.48 326.02L291.2 327.34V352.79L293.48 351.47V326.02Z" fill="#F0F0F0"/>
<path d="M288.92 326.02L291.2 327.34V352.79L288.92 351.47V326.02Z" fill="#E0E0E0"/>
<path d="M245.45 353.23L247.73 354.55V380L245.45 378.68V353.23Z" fill="#E0E0E0"/>
<path d="M318.68 342.66L316.4 343.98V369.43L318.68 368.11V342.66Z" fill="#EBEBEB"/>
<path d="M245.45 369.3L272.91 385.15L318.68 358.73L291.22 342.87L245.45 369.3Z" fill="#FAFAFA"/>
<path d="M291.22 343.45L317.68 358.73L272.91 384.57L246.45 369.3L291.22 343.45ZM291.22 342.87L245.45 369.3L272.91 385.15L318.68 358.73L291.22 342.87Z" fill="#E0E0E0"/>
<path d="M272.91 385.15V387.26L318.68 360.84V358.73L272.91 385.15Z" fill="#EBEBEB"/>
<path d="M245.45 369.3L272.91 385.15V387.26L245.45 371.41V369.3Z" fill="#E0E0E0"/>
<path d="M245.45 348.26L272.91 364.11L318.68 337.69L291.22 321.83L245.45 348.26Z" fill="#FAFAFA"/>
<path d="M291.22 322.48L317.56 337.69L272.91 363.46L246.57 348.26L291.22 322.48ZM291.22 321.83L245.45 348.26L272.91 364.11L318.68 337.69L291.22 321.83Z" fill="#E0E0E0"/>
<path d="M272.91 364.11V366.23L318.68 339.8V337.69L272.91 364.11Z" fill="#EBEBEB"/>
<path d="M245.45 348.26L272.91 364.11V366.23L245.45 350.37V348.26Z" fill="#E0E0E0"/>
<path d="M275.19 364.91L272.91 366.22V387.26L275.19 385.95V364.91Z" fill="#EBEBEB"/>
<path d="M270.63 364.91L272.91 366.22V387.26L270.63 385.95V364.91Z" fill="#E0E0E0"/>
<path d="M245.45 350.37L247.73 351.69V372.73L245.45 371.42V350.37Z" fill="#E0E0E0"/>
<path d="M250.01 353L247.73 351.69V370.61L250.01 369.3V353Z" fill="#F0F0F0"/>
<path d="M318.68 339.8L316.4 341.12V362.16L318.68 360.84V339.8Z" fill="#EBEBEB"/>
<path d="M314.12 342.43L316.4 341.12V360.04L314.12 358.72V342.43Z" fill="#E0E0E0"/>
<path d="M275.19 393.21L272.91 394.53V403.38L275.19 402.07V393.21Z" fill="#EBEBEB"/>
<path d="M270.63 393.21L272.91 394.53V403.38L270.63 402.07V393.21Z" fill="#E0E0E0"/>
<path d="M245.45 378.68L247.73 380V388.85L245.45 387.53V378.68Z" fill="#E0E0E0"/>
<path d="M250.01 374.04L247.73 372.73V388.85L250.01 387.53V374.04Z" fill="#F0F0F0"/>
<path d="M318.68 368.11L316.4 369.43V378.28L318.68 376.96V368.11Z" fill="#EBEBEB"/>
<path d="M314.12 363.47L316.4 362.16V378.28L314.12 376.96V363.47Z" fill="#E0E0E0"/>
</svg>
