<svg width="334" height="317" viewBox="0 0 334 317" fill="none" xmlns="http://www.w3.org/2000/svg">
<path d="M333 77.879V155.042L330.77 156.843V181.727C273.981 226.85 217.24 271.925 160.451 317C106.983 272.92 53.4679 228.84 0 184.713V106.697C44.3589 71.4329 88.7178 36.2165 133.077 0.952637L143.087 9.19982V87.2163L135.449 93.2832V91.8613L132.982 89.8232L60.9164 147.08L160.024 228.556L269.142 141.866L232.659 111.768L196.033 140.87L195.464 140.159L194.894 140.823L164.152 115.465L164.721 114.802H163.819V38.065L171.031 32.1877L195.606 52.4265L232.801 22.8503L248.173 35.5529L265.821 21.5706C288.356 40.1505 310.465 59.2517 333.047 77.8316L333 77.879ZM27.8014 205.331V141.202L27.754 141.155L27.8014 141.06V140.965L27.8488 141.013L28.8926 139.78L59.9201 166.323V231.826L159.55 313.967V239.126L1.80282 109.067V183.907L27.8014 205.379V205.331ZM33.6843 146.226V166.702L45.9719 156.701L33.6843 146.226ZM33.6843 169.025V201.824L28.513 205.947L58.1647 230.357V167.129L47.3478 157.886L33.6843 169.025ZM314.687 163.195L254.53 210.261V172.864L314.118 125.514L314.687 163.195ZM256.333 200.212L269.095 190.069L298.889 166.418L282.521 152.909L256.333 173.717V200.212ZM303.728 114.423L316.775 104.042L303.728 93.2832V114.423ZM276.353 136.178L301.973 115.844V91.8139L276.353 70.7219V136.225V136.178ZM303.728 161.441L307.998 158.028V132.671L303.728 136.083V161.441ZM299.6 164.711L301.925 162.863V137.505L283.944 151.819L299.6 164.711ZM270.565 140.776L274.551 137.6V69.2052L248.932 48.1133V122.954L270.565 140.776ZM249.453 46.2174L264.777 58.8251V34.0362L249.453 46.2174ZM266.58 60.3419L302.874 90.2498L319.099 77.3576L266.628 34.0836V60.2945L266.58 60.3419ZM328.967 156.417V105.986L161.352 239.126V314.014L328.967 180.874V156.417ZM194.562 63.5175L165.575 39.6291V114.47L194.562 138.358V63.5175ZM331.197 79.3009L315.873 91.4821L330.723 103.711V154.521L331.197 154.142V79.2535V79.3009ZM13.9481 107.266L60.2047 145.421L132.08 88.3065V13.4182L13.9481 107.266ZM141.332 11.5223L137.252 14.7927V89.681L141.332 86.4106V11.5223ZM135.449 14.7453L133.883 13.4656V88.3065L135.449 89.5862V14.7453ZM247.129 46.5966L233.56 35.4107V110.252L247.129 121.437V46.5966ZM231.757 35.3633L196.318 63.5175V138.406L231.757 110.252V35.3633Z" fill="white"/>
</svg>
